<svg xmlns="http://www.w3.org/2000/svg" width="96" height="96" viewBox="0 0 96 96">
  <defs>
    <linearGradient id="lrt_ru_96x96px-a" x1="25.053%" x2="72.848%" y1="44.069%" y2="55.257%">
      <stop offset="0%" stop-color="#151C4B"/>
      <stop offset="100%" stop-color="#016CA8"/>
    </linearGradient>
    <radialGradient id="lrt_ru_96x96px-b" cx="35.748%" cy="-15.534%" r="102.29%" fx="35.748%" fy="-15.534%" gradientTransform="matrix(0 1 -.77555 0 .237 -.513)">
      <stop offset="0%" stop-color="#1D1F6C"/>
      <stop offset="100%" stop-color="#A8A7FF"/>
    </radialGradient>
    <radialGradient id="lrt_ru_96x96px-c" cx="35.803%" cy="-15.545%" r="102.29%" fx="35.803%" fy="-15.545%" gradientTransform="matrix(0 1 -.89497 0 .219 -.513)">
      <stop offset="0%" stop-color="#1D1F6C"/>
      <stop offset="100%" stop-color="#A8A7FF"/>
    </radialGradient>
    <radialGradient id="lrt_ru_96x96px-d" cx="35.759%" cy="-15.591%" r="131.883%" fx="35.759%" fy="-15.591%" gradientTransform="matrix(0 .77561 -1 0 .202 -.433)">
      <stop offset="0%" stop-color="#1D1F6C"/>
      <stop offset="100%" stop-color="#A8A7FF"/>
    </radialGradient>
  </defs>
  <g fill="none" fill-rule="evenodd">
    <rect width="96" height="96" fill="#FFF" opacity="0"/>
    <g fill-rule="nonzero" transform="translate(0 5)">
      <g transform="translate(2)">
        <g transform="translate(12)">
          <path fill="#111A5F" d="M75.6859104,16.5630845 C70.9372537,19.9560845 68.5702687,22.1408873 67.029403,29.4096761 C66.7381194,30.7710423 55.006,86.0589296 55.006,86.0589296 C55.006,86.0589296 58.3117015,84.129 59.3985075,83.4562817 L59.3985075,83.4513803 C63.9807164,80.1760141 66.3379104,78.0120423 67.8885672,71.3252958 L67.9142687,71.2542254 L67.9154925,71.2542254 L80.0796418,13.9567606 C80.0796418,13.9567606 76.766597,15.8879155 75.6859104,16.5630845"/>
          <path fill="url(#lrt_ru_96x96px-a)" d="M59.1353731,17.8913662 L59.2198209,17.8938169 C65.9487164,19.1975915 68.8823582,17.9207746 73.7374925,15.0620282 C74.7912537,14.3439718 78.5987463,12.2510704 78.5987463,12.2510704 C78.5987463,12.2510704 26.6707164,1.10526761 24.8153134,0.75971831 C17.5197612,-0.594295775 11.6194328,-0.0661690141 6.08137313,2.7558169 L0.078238806,5.59005634 L59.1402687,17.8913662 L59.1353731,17.8913662"/>
        </g>
        <g transform="translate(49 33)">
          <path fill="#111A5F" d="M25.1828571,0.0688695652 L8.87466667,0.0688695652 L8.87466667,0.0713043478 C5.11209524,0.118782609 1.44980952,3.11721739 0.662380952,6.82173913 L8.07485714,6.82173913 L5.34361905,19.664 C4.58219048,23.3965217 7.04104762,26.4193043 10.8308571,26.4193043 L10.8407619,26.3852174 L10.906381,26.4193043 L12.1927619,26.4193043 L16.328,6.82173913 L16.9730476,6.82173913 L16.9730476,6.81443478 C20.735619,6.77182609 24.400381,3.77095652 25.1828571,0.0688695652"/>
          <path fill="url(#lrt_ru_96x96px-b)" fill-opacity=".22" d="M25.1828571,0.0688695652 C24.400381,3.77095652 20.735619,6.77182609 16.9730476,6.81443478 L16.9730476,6.81443478 L16.9730476,6.82173913 L16.328,6.82173913 L14.5052953,15.4600174 C11.7111771,16.8044427 8.68722754,18.0190805 5.46817503,19.0856816 L8.07485714,6.82173913 L0.662380952,6.82173913 C1.44980952,3.11721739 5.11209524,0.118782609 8.87466667,0.0713043478 L8.87466667,0.0713043478 L8.87466667,0.0688695652 L25.1828571,0.0688695652 Z"/>
        </g>
        <g transform="translate(21 33)">
          <path fill="#111A5F" d="M18.9706087,0.0688695652 L5.60852174,0.0688695652 L0.144869565,26.4193043 L8.11878261,26.4193043 L12.3212174,6.34086957 L16.7172174,6.34086957 C18.822087,6.34086957 19.4429565,7.63495652 19.4429565,8.62834783 C19.4429565,9.66069565 18.9146087,10.6041739 17.8055652,11.1276522 C17.4208696,11.3126957 16.9643478,11.4466087 16.4396522,11.522087 C16.3081739,11.5342609 16.044,11.593913 16.044,11.593913 C13.2902609,12.1709565 11.4994783,14.3829565 11.1086957,17.2267826 L14.3603478,17.2267826 C16.1669565,17.3789565 17.0166957,18.3273043 17.0313043,19.5666087 C17.052,20.9069565 16.6733913,22.5151304 16.6892174,23.8201739 C16.7026087,25.0083478 16.7525217,25.7144348 17.0605217,26.4193043 L24.7252174,26.4193043 C24.3855652,25.6413913 24.2650435,24.4544348 24.2492174,23.2638261 C24.2321739,22.072 24.2857391,20.7693913 24.2686957,19.5398261 C24.2358261,17.010087 23.8754783,14.8151304 21.4918261,14.1455652 L21.4918261,14.0956522 C22.4146087,13.9069565 23.2984348,13.6318261 24.2333913,13.0864348 C26.1921739,11.9457391 27.5641739,9.71547826 27.5641739,6.97391304 C27.5641739,1.40069565 23.8401739,0.0688695652 18.9706087,0.0688695652"/>
          <path fill="url(#lrt_ru_96x96px-c)" fill-opacity=".22" d="M18.9706087,0.0688695652 C23.8401739,0.0688695652 27.5641739,1.40069565 27.5641739,6.97391304 C27.5641739,9.71547826 26.1921739,11.9457391 24.2333913,13.0864348 C23.2984348,13.6318261 22.4146087,13.9069565 21.4918261,14.0956522 L21.4918261,14.0956522 L21.4918261,14.1455652 C23.8754783,14.8151304 24.2358261,17.010087 24.2686957,19.5398261 C24.2781532,20.2221206 24.2658688,20.9269069 24.2559719,21.6227748 C21.8195619,22.1682589 19.3045497,22.6336871 16.7227371,23.0124745 C16.8076637,21.8888053 17.0479023,20.6415728 17.0313043,19.5666087 C17.0166957,18.3273043 16.1669565,17.3789565 14.3603478,17.2267826 L14.3603478,17.2267826 L11.1086957,17.2267826 C11.4994783,14.3829565 13.2902609,12.1709565 16.044,11.593913 C16.044,11.593913 16.3081739,11.5342609 16.4396522,11.522087 C16.9643478,11.4466087 17.4208696,11.3126957 17.8055652,11.1276522 C18.9146087,10.6041739 19.4429565,9.66069565 19.4429565,8.62834783 C19.4429565,7.63495652 18.822087,6.34086957 16.7172174,6.34086957 L16.7172174,6.34086957 L12.3212174,6.34086957 L8.64775883,23.8929775 C6.01567347,24.0837002 3.33158857,24.1864365 0.60622966,24.1954542 L5.60852174,0.0688695652 L18.9706087,0.0688695652 Z"/>
        </g>
        <g transform="translate(0 33)">
          <path fill="#111A5F" d="M10.185,19.664 L20.0438824,19.664 L18.6232941,26.4193043 L0.522529412,26.4193043 L6.06776471,0.0688695652 L7.42905882,0.0688695652 C11.2102941,0.0688695652 13.6660588,3.088 12.9088235,6.82173913 L10.185,19.664"/>
          <path fill="url(#lrt_ru_96x96px-d)" fill-opacity=".22" d="M7.42905882,0.0688695652 C11.2102941,0.0688695652 13.6660588,3.088 12.9088235,6.82173913 L10.185,19.664 L20.0438824,19.664 L19.094863,24.1776713 C12.9134236,24.0701006 6.95543519,23.4941936 1.34484231,22.5152271 L6.06776471,0.0688695652 L7.42905882,0.0688695652 Z"/>
        </g>
      </g>
      <g fill="#151B4A" transform="translate(0 65)">
        <path d="M14.330543,3.5 C14.2844093,3.75994695 14.2074975,4.02156208 14.0998076,4.28455529 C13.9921177,4.54769355 13.8471737,4.78740467 13.6652425,5.00405131 C13.4831779,5.22077047 13.2639926,5.39709051 13.0076867,5.5331565 C12.7511804,5.66936755 12.4538816,5.73747306 12.1154563,5.73747306 C11.777031,5.73747306 11.502699,5.66936755 11.2925267,5.5331565 C11.082221,5.39709051 10.9233234,5.22077047 10.8157003,5.00405131 C10.7080104,4.78740467 10.645119,4.54769355 10.6272263,4.28455529 C10.6092,4.02156208 10.6234208,3.75994695 10.6695545,3.5 C10.7156882,3.24005305 10.7926,2.97872803 10.9002899,2.71558977 C11.007913,2.45259657 11.1527235,2.21274039 11.3347881,1.99609375 C11.5167861,1.77951965 11.7359714,1.60312707 11.9924108,1.46691603 C12.2487168,1.33085005 12.5462159,1.262672 12.8845743,1.262672 C13.2229997,1.262672 13.497265,1.33085005 13.7075707,1.46691603 C13.917743,1.60312707 14.0767074,1.77951965 14.1843972,1.99609375 C14.2920871,2.21274039 14.3547782,2.45259657 14.3728044,2.71558977 C14.3907639,2.97872803 14.3766767,3.24005305 14.330543,3.5 Z M15.7072777,1.2301061 C15.5892394,0.991918104 15.4188584,0.781509036 15.1958008,0.598806366 C14.9727432,0.416393817 14.6907333,0.270898956 14.3497709,0.162539373 C14.0087419,0.054252321 13.592203,0 13.0999542,0 C12.6077052,0 12.1718716,0.054252321 11.7924535,0.162539373 C11.4129018,0.270898956 11.0810193,0.416393817 10.7964723,0.598806366 C10.5118585,0.781509036 10.2707748,0.991918104 10.073488,1.2301061 C9.8760009,1.46843916 9.71069393,1.71750663 9.57736679,1.97745358 C9.44397287,2.23747306 9.33895354,2.49894313 9.26204174,2.76193634 C9.18512994,3.02507461 9.1261108,3.27116835 9.08518464,3.5 C9.04405819,3.72904924 9.01715242,3.97507046 9.00440054,4.23813619 C8.99151514,4.50127446 9.00693756,4.76259947 9.05053427,5.02254642 C9.09406422,5.28249337 9.17478156,5.53177843 9.29281981,5.7698939 C9.41072454,6.00822696 9.57990381,6.21878109 9.80042437,6.40119363 C10.0208114,6.5838963 10.3015528,6.72939117 10.6426487,6.83760569 C10.9835442,6.94574769 11.4002166,7 11.8924655,7 C12.3847144,7 12.8204144,6.94574769 13.1999662,6.83760569 C13.5793176,6.72939117 13.9114004,6.5838963 14.1959473,6.40119363 C14.4804943,6.21878109 14.7227799,6.00822696 14.9227372,5.7698939 C15.1227613,5.53177843 15.28927,5.28249337 15.422664,5.02254642 C15.5559911,4.76259947 15.6611439,4.50127446 15.7380557,4.23813619 C15.8149008,3.97507046 15.8738531,3.72904924 15.9149128,3.5 C15.9559057,3.27116835 15.9828115,3.02507461 15.9956969,2.76193634 C16.008382,2.49894313 15.9930263,2.23747306 15.9495632,1.97745358 C15.9058997,1.71750663 15.8251824,1.46843916 15.7072777,1.2301061 L15.7072777,1.2301061 Z"/>
        <polyline points="44 1.333 46.114 1.333 45.156 7 46.705 7 47.662 1.333 49.776 1.333 50 0 44.224 0 44 1.333"/>
        <path d="M42.1012869,0.48740053 C41.8066701,0.292512848 41.4748409,0.162539373 41.1060141,0.0974801062 C40.7369724,0.0325658985 40.3735234,0 40.0156668,0 C39.4759066,0 38.9790948,0.0665823939 38.5248012,0.199602122 C38.0704361,0.33276691 37.6670499,0.541652852 37.3147143,0.826332477 C36.9622354,1.11108463 36.664894,1.47467672 36.4226185,1.91718129 C36.1802713,2.35975838 36.0013788,2.88734044 35.8857262,3.5 C35.7700735,4.11273209 35.7521484,4.64053175 35.8320943,5.08289125 C35.9118251,5.52554087 36.0757321,5.88920549 36.3235286,6.17374006 C36.571325,6.45849221 36.8975616,6.66737815 37.3023102,6.80039788 C37.7070586,6.9334176 38.1791339,7 38.7188942,7 C39.1868824,7 39.6315681,6.94901153 40.0528793,6.8468895 C40.474119,6.74476749 40.8582177,6.58222812 41.2051041,6.35941645 C41.5520621,6.13667731 41.854781,5.85344828 42.1136911,5.50994695 C42.3724576,5.16651816 42.5707091,4.75338818 42.7083738,4.27055703 L40.9655532,4.27055703 C40.8774334,4.53050398 40.7632148,4.75338818 40.6228255,4.93899204 C40.4823645,5.12474096 40.3254124,5.27640086 40.1519692,5.39397173 C39.978526,5.51161514 39.7939693,5.59821577 39.5985142,5.65391868 C39.4030589,5.70954907 39.2088944,5.73747306 39.0162355,5.73747306 C38.6362954,5.73747306 38.3402445,5.66312998 38.1282983,5.51466139 C37.9162804,5.36612028 37.7620528,5.18037136 37.6657592,4.95763221 C37.5693223,4.73482055 37.5212113,4.49199064 37.5212113,4.22877985 C37.5212113,3.96578664 37.5431516,3.72281168 37.5873191,3.5 C37.6257504,3.27726087 37.6946545,3.03435843 37.7938162,2.77122017 C37.8929061,2.50822695 38.030499,2.26532452 38.2067385,2.04251285 C38.3829062,1.81962864 38.604532,1.63402478 38.8716876,1.48548367 C39.1386997,1.33694256 39.4622834,1.262672 39.8422237,1.262672 C40.0514453,1.262672 40.2441041,1.29211911 40.4204154,1.35079576 C40.5965832,1.40976252 40.7480143,1.49933687 40.8747088,1.62002653 C41.0013316,1.74071618 41.0990592,1.88925729 41.1679634,2.0657224 C41.236724,2.24204244 41.2683438,2.45092839 41.2628946,2.6923077 L42.9892242,2.6923077 C43.0277272,2.12302097 42.9630535,1.66180372 42.7951312,1.30901856 C42.6271373,0.956305952 42.3958319,0.682433273 42.1012869,0.48740053 M32.4051757,3.5 C32.355559,3.75994695 32.2729602,4.02156208 32.1573792,4.28455529 C32.0417266,4.54769355 31.886065,4.78740467 31.6906816,5.00405131 C31.4951547,5.22077047 31.2597625,5.39709051 30.984433,5.5331565 C30.709032,5.66936755 30.3897503,5.73747306 30.0263011,5.73747306 C29.6628521,5.73747306 29.3682352,5.66936755 29.1425225,5.5331565 C28.9165947,5.39709051 28.7460196,5.22077047 28.6303669,5.00405131 C28.5147141,4.78740467 28.4472441,4.54769355 28.4280284,4.28455529 C28.4086693,4.02156208 28.4238698,3.75994695 28.4734147,3.5 C28.5230314,3.24005305 28.6056303,2.97872803 28.7212113,2.71558977 C28.8368639,2.45259657 28.992382,2.21274039 29.1879088,1.99609375 C29.3832924,1.77951965 29.6186846,1.60312707 29.8941574,1.46691603 C30.169415,1.33085005 30.4888402,1.262672 30.8522893,1.262672 C31.2157384,1.262672 31.5102118,1.33085005 31.7360679,1.46691603 C31.9618524,1.60312707 32.1325709,1.77951965 32.2482236,1.99609375 C32.3638763,2.21274039 32.4312029,2.45259657 32.450562,2.71558977 C32.4698494,2.97872803 32.4547206,3.24005305 32.4051757,3.5 Z M33.8836371,1.2301061 C33.7569426,0.991918104 33.5739632,0.781509036 33.3344123,0.598806366 C33.0948614,0.416393817 32.7919274,0.270898956 32.4258254,0.162539373 C32.0595083,0.054252321 31.6122414,0 31.0835947,0 C30.5549479,0 30.0868162,0.054252321 29.6794148,0.162539373 C29.2717982,0.270898956 28.9153758,0.416393817 28.6097172,0.598806366 C28.3041302,0.781509036 28.0452203,0.991918104 27.8333457,1.2301061 C27.621256,1.46843916 27.4436542,1.71750663 27.3005403,1.97745358 C27.157283,2.23747306 27.0444984,2.49894313 26.9618996,2.76193634 C26.8793008,3.02507461 26.8159176,3.27116835 26.7718935,3.5 C26.7277978,3.72904924 26.6988309,3.97507046 26.6852078,4.23813619 C26.6713696,4.50127446 26.6878607,4.76259947 26.7347528,5.02254642 C26.7815014,5.28249337 26.8681872,5.53177843 26.9949534,5.7698939 C27.1215046,6.00822696 27.3032649,6.21878109 27.5400912,6.40119363 C27.7767742,6.5838963 28.0782741,6.72939117 28.4445195,6.83760569 C28.8106933,6.94574769 29.2581752,7 29.7867503,7 C30.3153971,7 30.7833852,6.94574769 31.1909301,6.83760569 C31.5984032,6.72939117 31.9549692,6.5838963 32.2606277,6.40119363 C32.5662146,6.21878109 32.8264153,6.00822696 33.0411579,5.7698939 C33.2559004,5.53177843 33.4347928,5.28249337 33.5780501,5.02254642 C33.7211641,4.76259947 33.8340921,4.50127446 33.9166909,4.23813619 C33.9992897,3.97507046 34.0625294,3.72904924 34.1066969,3.5 C34.1506492,3.27116835 34.1796161,3.02507461 34.1934543,2.76193634 C34.2070774,2.49894313 34.1905863,2.23747306 34.1438376,1.97745358 C34.0970173,1.71750663 34.0102599,1.46843916 33.8836371,1.2301061 L33.8836371,1.2301061 Z M23.3028151,2.10742706 C23.2586477,2.35504394 23.171962,2.53607842 23.0426145,2.6505305 C22.9131954,2.76512765 22.7548093,2.82228117 22.5676713,2.82228117 L20.3375034,2.82228117 L20.6018626,1.39264547 L22.6089707,1.39264547 C22.7741684,1.39264547 22.9063122,1.40976252 23.0054737,1.44370648 C23.1045636,1.47772297 23.1789169,1.52718833 23.2284618,1.5922476 C23.2780068,1.65723433 23.3069737,1.73310054 23.3152193,1.81962864 C23.3234648,1.90644686 23.3193387,2.00233132 23.3028151,2.10742706 Z M23.0219648,4.77188329 C22.98339,4.98243742 22.8980666,5.16499503 22.7659229,5.31962865 C22.633779,5.47447986 22.4437731,5.55172414 22.1959767,5.55172414 L19.833665,5.55172414 L20.1227609,3.97354734 L22.3198749,3.97354734 C22.8869531,3.97354734 23.1211264,4.23965932 23.0219648,4.77188329 Z M24.7358902,0.561743618 C24.6064711,0.428723889 24.4467944,0.33276691 24.2568601,0.273945209 C24.0668541,0.215123508 23.8645157,0.185748923 23.6497015,0.185748923 L19.2224194,0.185748923 L18,6.81439614 L22.2042222,6.81439614 C22.6502702,6.81439614 23.0246894,6.75093253 23.3276234,6.62400531 C23.6303424,6.49722314 23.8781388,6.33627942 24.070941,6.14124669 C24.2636716,5.94635901 24.4096536,5.73138055 24.5087435,5.49609376 C24.6079051,5.26095201 24.6766657,5.03183024 24.7152405,4.80901857 C24.7482944,4.6358173 24.7592645,4.45949726 24.7482944,4.27984085 C24.7371808,4.10047455 24.70004,3.93641205 24.6368003,3.78787095 C24.5734172,3.6392573 24.4866598,3.51247513 24.3765997,3.40723433 C24.2663962,3.30206607 24.1288032,3.23396055 23.9636056,3.20299031 L23.9718512,3.18442266 C24.1205577,3.13488478 24.2527014,3.06220988 24.3683542,2.9662529 C24.4840069,2.87036846 24.5843874,2.76193634 24.6697825,2.64124669 C24.7551059,2.52055703 24.8253005,2.39225174 24.8804381,2.25604071 C24.9354323,2.11997472 24.9767317,1.98680993 25.0043363,1.85683646 C25.0593305,1.55358919 25.0607645,1.29516537 25.0084949,1.08156499 C24.956082,0.868037136 24.8652376,0.694835876 24.7358902,0.561743618 L24.7358902,0.561743618 Z"/>
        <polyline points="5.868 2.627 2.439 2.627 2.916 0 1.262 0 0 7 1.655 7 2.2 3.961 5.629 3.961 5.082 7 6.737 7 8 0 6.345 0 5.868 2.627"/>
        <polyline points="56.482 0 56.276 0 52.878 4.83 53.677 0 52.159 0 51 7 52.706 7 56.131 2.121 55.324 7 56.842 7 58 0 56.482 0"/>
      </g>
    </g>
  </g>
</svg>
