<?xml version="1.0" encoding="utf-8"?>
<!-- Generator: Adobe Illustrator 15.0.0, SVG Export Plug-In . SVG Version: 6.00 Build 0)  -->
<!DOCTYPE svg PUBLIC "-//W3C//DTD SVG 1.1//EN" "http://www.w3.org/Graphics/SVG/1.1/DTD/svg11.dtd">
<svg version="1.1" id="Layer_1" xmlns="http://www.w3.org/2000/svg" xmlns:xlink="http://www.w3.org/1999/xlink" x="0px" y="0px"
	 width="396.854px" height="396.854px" viewBox="95.079 225.825 396.854 396.854"
	 enable-background="new 95.079 225.825 396.854 396.854" xml:space="preserve">
<path fill="#FFFFFF" d="M369.57,393.661c0,58.702-47.953,106.655-106.654,106.655s-106.654-47.953-106.654-106.655
	c0-58.701,47.953-106.654,106.654-106.654S369.57,334.133,369.57,393.661z M491.933,592.087c0-8.268-3.308-15.709-9.095-21.496
	l-81.851-81.85c19.016-28.111,29.764-61.182,29.764-95.08c0-92.599-75.237-167.836-167.836-167.836S95.079,301.063,95.079,393.662
	c0,92.6,75.237,167.836,167.836,167.836c33.898,0,66.969-9.922,95.079-29.764l81.852,81.85c5.787,5.789,13.229,9.096,21.496,9.096
	C477.877,622.679,491.933,608.625,491.933,592.087z"/>
</svg>
