<?xml version="1.0" encoding="utf-8"?>
<!-- Generator: Adobe Illustrator 15.0.0, SVG Export Plug-In . SVG Version: 6.00 Build 0)  -->
<!DOCTYPE svg PUBLIC "-//W3C//DTD SVG 1.1//EN" "http://www.w3.org/Graphics/SVG/1.1/DTD/svg11.dtd">
<svg version="1.1" id="Layer_1" xmlns="http://www.w3.org/2000/svg" xmlns:xlink="http://www.w3.org/1999/xlink" x="0px" y="0px"
	 width="396.854px" height="308.389px" viewBox="99.213 266.337 396.854 308.389"
	 enable-background="new 99.213 266.337 396.854 308.389" xml:space="preserve">
<g id="XMLID_2_">
	<g>
		<path fill="#FFFFFF" d="M479.531,530.906H115.749c-4.134,0-8.269,1.654-11.575,4.961c-3.308,3.309-4.961,7.441-4.961,11.576
			v10.748c0,4.133,1.653,8.268,4.961,11.574c3.307,3.307,7.441,4.961,11.575,4.961h363.782c4.134,0,8.268-1.654,11.574-4.961
			c3.308-3.307,4.961-7.441,4.961-11.574v-10.748c0-4.135-1.653-8.268-4.961-11.576C487.799,532.56,483.665,530.906,479.531,530.906
			z M491.106,271.298c-3.307-3.307-7.44-4.961-11.574-4.961H115.749c-4.134,0-8.269,1.654-11.575,4.961
			c-3.308,3.307-4.961,7.441-4.961,11.575v10.748c0,4.134,1.653,8.268,4.961,11.575c3.307,3.307,7.441,4.96,11.575,4.96h363.782
			c4.134,0,8.268-1.653,11.574-4.96c3.308-3.307,4.961-7.441,4.961-11.575v-10.748C496.067,278.739,494.413,274.605,491.106,271.298
			z M479.531,398.622H115.749c-4.134,0-8.269,1.653-11.575,4.96c-3.308,3.307-4.961,7.441-4.961,11.575v10.748
			c0,4.135,1.653,8.268,4.961,11.574c3.307,3.309,7.441,4.961,11.575,4.961h363.782c4.134,0,8.268-1.652,11.574-4.961
			c3.308-3.307,4.961-7.439,4.961-11.574v-10.748c0-4.134-1.653-8.268-4.961-11.575
			C487.799,400.275,483.665,398.622,479.531,398.622z"/>
	</g>
</g>
</svg>
