<?xml version="1.0" encoding="UTF-8"?>
<svg width="18px" height="18px" viewBox="0 0 18 18" version="1.1" xmlns="http://www.w3.org/2000/svg" xmlns:xlink="http://www.w3.org/1999/xlink">
    <title>telegram vesti</title>
    <g id="Page-1" stroke="none" stroke-width="1" fill="none" fill-rule="evenodd">
        <path d="M17.9907281,0.753333836 L15.4193486,16.1816108 C15.3858669,16.3758045 15.2787272,16.5264697 15.0979261,16.6336111 C15.0041775,16.6871818 14.9003858,16.7139667 14.7865482,16.7139667 C14.7128885,16.7139667 14.6325337,16.6972261 14.5454813,16.6637444 L9.99534496,14.805521 L7.56458778,17.7686341 C7.44405376,17.9226498 7.27999604,17.9996564 7.07240967,17.9996564 C6.98535733,17.9996564 6.91169876,17.986264 6.85143175,17.9594786 C6.7242014,17.9126043 6.62208383,17.8339236 6.54507599,17.723434 C6.46806815,17.6129445 6.4295648,17.4907383 6.4295648,17.3568116 L6.4295648,13.8512981 L15.1079706,3.21422437 L4.37045232,12.5053417 L0.402894116,10.8781406 C0.155129749,10.7843919 0.0212050728,10.6002455 0.00111607004,10.3256958 C-0.0122765984,10.0578424 0.0948631423,9.86030351 0.322538507,9.73307316 L17.0365052,0.0904000603 C17.1369502,0.0301330521 17.24409,0 17.3579276,0 C17.4918543,0 17.6123865,0.0368292859 17.7195279,0.110488963 C17.9405069,0.271200984 18.0309061,0.485480466 17.9907281,0.753333836 Z" id="telegram-vesti" fill="#FFFFFF"></path>
    </g>
</svg>