<svg width="450" height="110" viewBox="0 0 450 110" fill="none" xmlns="http://www.w3.org/2000/svg">
<g clip-path="url(#clip0)">
<path d="M450 0H0V100H450V0Z" fill="black"/>
<path d="M61.0599 41.25H38.9399V43.9H61.0599V41.25Z" fill="white"/>
<path d="M61.0599 48.24H38.9399V50.89H61.0599V48.24Z" fill="white"/>
<path d="M61.0599 55.23H38.9399V57.88H61.0599V55.23Z" fill="white"/>
<path d="M406.24 53.4201C407.479 51.635 408.143 49.5132 408.14 47.3401C408.142 44.8815 407.304 42.496 405.764 40.5793C404.224 38.6626 402.076 37.3298 399.674 36.8019C397.273 36.2741 394.764 36.5829 392.562 37.6772C390.36 38.7715 388.599 40.5856 387.57 42.8184C386.541 45.0513 386.306 47.5688 386.904 49.9535C387.502 52.3383 388.898 54.4468 390.859 55.9296C392.82 57.4123 395.229 58.1801 397.687 58.1056C400.144 58.0311 402.502 57.1188 404.37 55.5201L411.37 62.5201L413.37 60.5201L406.24 53.4201ZM397.38 55.3101C395.798 55.3101 394.251 54.8409 392.936 53.9618C391.62 53.0828 390.595 51.8334 389.989 50.3715C389.384 48.9097 389.225 47.3012 389.534 45.7494C389.842 44.1975 390.604 42.772 391.723 41.6532C392.842 40.5344 394.268 39.7725 395.819 39.4638C397.371 39.1551 398.98 39.3135 400.442 39.919C401.903 40.5245 403.153 41.5499 404.032 42.8655C404.911 44.1811 405.38 45.7278 405.38 47.3101C405.38 49.4318 404.537 51.4666 403.037 52.9669C401.537 54.4672 399.502 55.3101 397.38 55.3101Z" fill="white"/>
<path d="M198.473 24.2734V25.3574C197.73 25.416 197.105 25.6211 196.598 25.9727C196.09 26.3242 195.641 26.8613 195.25 27.584C195.133 27.8184 194.518 29.332 193.404 32.125L180.953 64.9082H179.811L169.967 39.3027L159.127 64.9082H158.043L144.977 32.4766C143.648 29.2148 142.721 27.2422 142.193 26.5586C141.666 25.875 140.777 25.4746 139.527 25.3574V24.2734H156.754V25.3574C155.367 25.3965 154.439 25.6113 153.971 26.002C153.521 26.373 153.297 26.8418 153.297 27.4082C153.297 28.1504 153.775 29.7227 154.732 32.125L162.525 51.4023L168.766 36.3438L167.125 32.125C166.227 29.8203 165.533 28.2871 165.045 27.5254C164.557 26.7441 163.99 26.1875 163.346 25.8555C162.721 25.5234 161.793 25.3574 160.562 25.3574V24.2734H179.811V25.3574C178.463 25.377 177.496 25.4844 176.91 25.6797C176.5 25.8164 176.178 26.0508 175.943 26.3828C175.709 26.6953 175.592 27.0566 175.592 27.4668C175.592 27.916 176.031 29.293 176.91 31.5977L184.146 50.4062L190.621 33.3848C191.305 31.627 191.725 30.4258 191.881 29.7812C192.037 29.1367 192.115 28.541 192.115 27.9941C192.115 27.1934 191.842 26.5684 191.295 26.1191C190.748 25.6504 189.703 25.3965 188.16 25.3574V24.2734H198.473ZM215.348 26.5586V42.7305H216.139C218.658 42.7305 220.484 41.9395 221.617 40.3574C222.75 38.7754 223.473 36.4414 223.785 33.3555H224.898V54.1562H223.785C223.551 51.8906 223.053 50.0352 222.291 48.5898C221.549 47.1445 220.68 46.1777 219.684 45.6895C218.688 45.1816 217.242 44.9277 215.348 44.9277V56.1191C215.348 58.3066 215.436 59.6445 215.611 60.1328C215.807 60.6211 216.158 61.0215 216.666 61.334C217.174 61.6465 217.994 61.8027 219.127 61.8027H221.5C225.211 61.8027 228.18 60.9434 230.406 59.2246C232.652 57.5059 234.264 54.8887 235.24 51.373H236.324L234.537 64H200.201V62.916H201.52C202.672 62.916 203.6 62.7109 204.303 62.3008C204.811 62.0273 205.201 61.5586 205.475 60.8945C205.689 60.4258 205.797 59.1953 205.797 57.2031V31.0703C205.797 29.2734 205.748 28.1699 205.65 27.7598C205.455 27.0762 205.094 26.5488 204.566 26.1777C203.824 25.6309 202.809 25.3574 201.52 25.3574H200.201V24.2734H233.453V36.0215H232.34C231.773 33.1504 230.973 31.0898 229.938 29.8398C228.922 28.5898 227.477 27.6719 225.602 27.0859C224.508 26.7344 222.457 26.5586 219.449 26.5586H215.348ZM276.9 50.0547L275.406 64H240.133V62.916H241.451C242.604 62.916 243.531 62.7109 244.234 62.3008C244.742 62.0273 245.133 61.5586 245.406 60.8945C245.621 60.4258 245.729 59.1953 245.729 57.2031V31.0703C245.729 29.0391 245.621 27.7695 245.406 27.2617C245.191 26.7539 244.752 26.3145 244.088 25.9434C243.443 25.5527 242.564 25.3574 241.451 25.3574H240.133V24.2734H261.314V25.3574H259.586C258.434 25.3574 257.506 25.5625 256.803 25.9727C256.295 26.2461 255.895 26.7148 255.602 27.3789C255.387 27.8477 255.279 29.0781 255.279 31.0703V56.3828C255.279 58.4141 255.396 59.7129 255.631 60.2793C255.865 60.8262 256.324 61.2363 257.008 61.5098C257.496 61.6855 258.678 61.7734 260.553 61.7734H263.863C265.973 61.7734 267.73 61.4023 269.137 60.6602C270.543 59.918 271.754 58.7461 272.77 57.1445C273.805 55.543 274.781 53.1797 275.699 50.0547H276.9ZM311.383 24.2734V35.0254H310.328C309.703 32.5449 309.01 30.7676 308.248 29.6934C307.486 28.5996 306.441 27.7305 305.113 27.0859C304.371 26.7344 303.072 26.5586 301.217 26.5586H298.258V57.2031C298.258 59.2344 298.365 60.5039 298.58 61.0117C298.814 61.5195 299.254 61.9688 299.898 62.3594C300.562 62.7305 301.461 62.916 302.594 62.916H303.912V64H283.111V62.916H284.43C285.582 62.916 286.51 62.7109 287.213 62.3008C287.721 62.0273 288.121 61.5586 288.414 60.8945C288.629 60.4258 288.736 59.1953 288.736 57.2031V26.5586H285.865C283.189 26.5586 281.246 27.125 280.035 28.2578C278.336 29.8398 277.262 32.0957 276.812 35.0254H275.699V24.2734H311.383Z" fill="white"/>
<rect width="163" height="28" transform="translate(143 84)" fill="#FF0000"/>
<path d="M162.684 100.217H158.216L157.213 103H155.763L159.835 92.3359H161.065L165.145 103H163.702L162.684 100.217ZM158.641 99.0596H162.267L160.45 94.0718L158.641 99.0596ZM168.58 99.3306L167.73 100.217V103H166.375V91.75H167.73V98.5542L168.456 97.6826L170.924 95.0752H172.572L169.488 98.3857L172.931 103H171.341L168.58 99.3306ZM175.809 93.1562V95.0752H177.289V96.1226H175.809V101.037C175.809 101.354 175.875 101.594 176.007 101.755C176.139 101.911 176.363 101.989 176.681 101.989C176.837 101.989 177.052 101.96 177.325 101.901V103C176.969 103.098 176.622 103.146 176.285 103.146C175.68 103.146 175.223 102.963 174.916 102.597C174.608 102.231 174.454 101.711 174.454 101.037V96.1226H173.011V95.0752H174.454V93.1562H175.809ZM183.771 102.216C183.243 102.836 182.469 103.146 181.449 103.146C180.604 103.146 179.959 102.902 179.515 102.414C179.076 101.921 178.854 101.193 178.849 100.231V95.0752H180.204V100.195C180.204 101.396 180.692 101.997 181.668 101.997C182.704 101.997 183.392 101.611 183.734 100.839V95.0752H185.089V103H183.8L183.771 102.216ZM190.443 103.146C189.369 103.146 188.495 102.795 187.821 102.092C187.147 101.384 186.81 100.439 186.81 99.2573V99.0083C186.81 98.2222 186.959 97.5215 187.257 96.9062C187.56 96.2861 187.979 95.8027 188.517 95.4561C189.059 95.1045 189.645 94.9287 190.274 94.9287C191.305 94.9287 192.105 95.2681 192.677 95.9468C193.248 96.6255 193.534 97.5972 193.534 98.8618V99.4258H188.165C188.185 100.207 188.412 100.839 188.846 101.323C189.286 101.801 189.842 102.041 190.516 102.041C190.995 102.041 191.4 101.943 191.732 101.748C192.064 101.552 192.354 101.293 192.604 100.971L193.431 101.616C192.767 102.636 191.771 103.146 190.443 103.146ZM190.274 96.042C189.728 96.042 189.269 96.2422 188.897 96.6426C188.526 97.0381 188.297 97.5947 188.209 98.3125H192.179V98.21C192.14 97.5215 191.954 96.9893 191.622 96.6133C191.29 96.2324 190.841 96.042 190.274 96.042ZM196.581 103H195.226V91.75H196.581V103ZM200.228 103H198.873V91.75H200.228V103ZM205.692 103.146C204.618 103.146 203.744 102.795 203.07 102.092C202.396 101.384 202.059 100.439 202.059 99.2573V99.0083C202.059 98.2222 202.208 97.5215 202.506 96.9062C202.809 96.2861 203.229 95.8027 203.766 95.4561C204.308 95.1045 204.894 94.9287 205.523 94.9287C206.554 94.9287 207.354 95.2681 207.926 95.9468C208.497 96.6255 208.783 97.5972 208.783 98.8618V99.4258H203.414C203.434 100.207 203.661 100.839 204.095 101.323C204.535 101.801 205.091 102.041 205.765 102.041C206.244 102.041 206.649 101.943 206.981 101.748C207.313 101.552 207.604 101.293 207.853 100.971L208.68 101.616C208.016 102.636 207.02 103.146 205.692 103.146ZM205.523 96.042C204.977 96.042 204.518 96.2422 204.146 96.6426C203.775 97.0381 203.546 97.5947 203.458 98.3125H207.428V98.21C207.389 97.5215 207.203 96.9893 206.871 96.6133C206.539 96.2324 206.09 96.042 205.523 96.042ZM222.486 103H221.073L215.704 94.7822V103H214.291V92.3359H215.704L221.087 100.59V92.3359H222.486V103ZM229.664 103C229.586 102.844 229.522 102.565 229.474 102.165C228.844 102.819 228.092 103.146 227.218 103.146C226.437 103.146 225.794 102.927 225.292 102.487C224.793 102.043 224.544 101.481 224.544 100.803C224.544 99.9775 224.857 99.3379 225.482 98.8838C226.112 98.4248 226.996 98.1953 228.133 98.1953H229.452V97.5728C229.452 97.0991 229.31 96.7231 229.027 96.4448C228.744 96.1616 228.326 96.02 227.774 96.02C227.291 96.02 226.886 96.1421 226.559 96.3862C226.231 96.6304 226.068 96.9258 226.068 97.2725H224.706C224.706 96.877 224.845 96.4961 225.123 96.1299C225.406 95.7588 225.787 95.4658 226.266 95.251C226.749 95.0361 227.279 94.9287 227.855 94.9287C228.768 94.9287 229.483 95.1582 230.001 95.6172C230.519 96.0713 230.787 96.6987 230.807 97.4995V101.147C230.807 101.875 230.899 102.453 231.085 102.883V103H229.664ZM227.416 101.967C227.84 101.967 228.243 101.857 228.624 101.638C229.005 101.418 229.281 101.132 229.452 100.781V99.1548H228.39C226.729 99.1548 225.899 99.6406 225.899 100.612C225.899 101.037 226.041 101.369 226.324 101.608C226.607 101.848 226.971 101.967 227.416 101.967ZM236.109 102.041C236.593 102.041 237.015 101.894 237.376 101.601C237.738 101.308 237.938 100.942 237.977 100.502H239.259C239.234 100.957 239.078 101.389 238.79 101.799C238.502 102.209 238.116 102.536 237.633 102.78C237.154 103.024 236.646 103.146 236.109 103.146C235.03 103.146 234.171 102.788 233.531 102.07C232.896 101.347 232.579 100.361 232.579 99.1108V98.8838C232.579 98.1123 232.721 97.4263 233.004 96.8257C233.287 96.2251 233.692 95.7588 234.22 95.4268C234.752 95.0947 235.379 94.9287 236.102 94.9287C236.991 94.9287 237.728 95.1948 238.314 95.7271C238.905 96.2593 239.22 96.9502 239.259 97.7998H237.977C237.938 97.2871 237.743 96.8672 237.391 96.54C237.044 96.208 236.615 96.042 236.102 96.042C235.414 96.042 234.879 96.291 234.498 96.7891C234.122 97.2822 233.934 97.9976 233.934 98.9351V99.1914C233.934 100.104 234.122 100.808 234.498 101.301C234.874 101.794 235.411 102.041 236.109 102.041ZM242.137 96.0347C242.738 95.2974 243.519 94.9287 244.481 94.9287C246.156 94.9287 247 95.8735 247.015 97.7632V103H245.66V97.7559C245.655 97.1846 245.523 96.7622 245.265 96.4888C245.011 96.2153 244.613 96.0786 244.071 96.0786C243.631 96.0786 243.246 96.1958 242.914 96.4302C242.582 96.6646 242.323 96.9722 242.137 97.353V103H240.782V91.75H242.137V96.0347ZM252.875 96.291C252.669 96.2568 252.447 96.2397 252.208 96.2397C251.319 96.2397 250.716 96.6182 250.399 97.375V103H249.044V95.0752H250.362L250.384 95.9907C250.829 95.2827 251.458 94.9287 252.274 94.9287C252.538 94.9287 252.738 94.9629 252.875 95.0312V96.291ZM255.599 103H254.244V95.0752H255.599V103ZM254.134 92.9731C254.134 92.7534 254.2 92.5679 254.332 92.4165C254.469 92.2651 254.669 92.1895 254.933 92.1895C255.196 92.1895 255.396 92.2651 255.533 92.4165C255.67 92.5679 255.738 92.7534 255.738 92.9731C255.738 93.1929 255.67 93.376 255.533 93.5225C255.396 93.6689 255.196 93.7422 254.933 93.7422C254.669 93.7422 254.469 93.6689 254.332 93.5225C254.2 93.376 254.134 93.1929 254.134 92.9731ZM260.953 102.041C261.437 102.041 261.859 101.894 262.22 101.601C262.582 101.308 262.782 100.942 262.821 100.502H264.103C264.078 100.957 263.922 101.389 263.634 101.799C263.346 102.209 262.96 102.536 262.477 102.78C261.998 103.024 261.49 103.146 260.953 103.146C259.874 103.146 259.015 102.788 258.375 102.07C257.74 101.347 257.423 100.361 257.423 99.1108V98.8838C257.423 98.1123 257.564 97.4263 257.848 96.8257C258.131 96.2251 258.536 95.7588 259.063 95.4268C259.596 95.0947 260.223 94.9287 260.946 94.9287C261.834 94.9287 262.572 95.1948 263.158 95.7271C263.749 96.2593 264.063 96.9502 264.103 97.7998H262.821C262.782 97.2871 262.586 96.8672 262.235 96.54C261.888 96.208 261.458 96.042 260.946 96.042C260.257 96.042 259.723 96.291 259.342 96.7891C258.966 97.2822 258.778 97.9976 258.778 98.9351V99.1914C258.778 100.104 258.966 100.808 259.342 101.301C259.718 101.794 260.255 102.041 260.953 102.041ZM266.981 96.0347C267.582 95.2974 268.363 94.9287 269.325 94.9287C271 94.9287 271.844 95.8735 271.859 97.7632V103H270.504V97.7559C270.499 97.1846 270.367 96.7622 270.108 96.4888C269.854 96.2153 269.457 96.0786 268.915 96.0786C268.475 96.0786 268.089 96.1958 267.757 96.4302C267.425 96.6646 267.167 96.9722 266.981 97.353V103H265.626V91.75H266.981V96.0347ZM275.726 93.1562V95.0752H277.206V96.1226H275.726V101.037C275.726 101.354 275.792 101.594 275.924 101.755C276.056 101.911 276.28 101.989 276.598 101.989C276.754 101.989 276.969 101.96 277.242 101.901V103C276.886 103.098 276.539 103.146 276.202 103.146C275.597 103.146 275.14 102.963 274.833 102.597C274.525 102.231 274.371 101.711 274.371 101.037V96.1226H272.928V95.0752H274.371V93.1562H275.726ZM282.083 103.146C281.009 103.146 280.135 102.795 279.461 102.092C278.788 101.384 278.451 100.439 278.451 99.2573V99.0083C278.451 98.2222 278.6 97.5215 278.897 96.9062C279.2 96.2861 279.62 95.8027 280.157 95.4561C280.699 95.1045 281.285 94.9287 281.915 94.9287C282.945 94.9287 283.746 95.2681 284.317 95.9468C284.889 96.6255 285.174 97.5972 285.174 98.8618V99.4258H279.806C279.825 100.207 280.052 100.839 280.487 101.323C280.926 101.801 281.483 102.041 282.157 102.041C282.635 102.041 283.041 101.943 283.373 101.748C283.705 101.552 283.995 101.293 284.244 100.971L285.072 101.616C284.408 102.636 283.412 103.146 282.083 103.146ZM281.915 96.042C281.368 96.042 280.909 96.2422 280.538 96.6426C280.167 97.0381 279.938 97.5947 279.85 98.3125H283.819V98.21C283.78 97.5215 283.595 96.9893 283.263 96.6133C282.931 96.2324 282.481 96.042 281.915 96.042ZM288.031 95.0752L288.075 96.0713C288.68 95.3096 289.471 94.9287 290.448 94.9287C292.123 94.9287 292.967 95.8735 292.982 97.7632V103H291.627V97.7559C291.622 97.1846 291.49 96.7622 291.231 96.4888C290.978 96.2153 290.58 96.0786 290.038 96.0786C289.598 96.0786 289.212 96.1958 288.88 96.4302C288.548 96.6646 288.29 96.9722 288.104 97.353V103H286.749V95.0752H288.031Z" fill="white"/>
</g>
<defs>
<clipPath id="clip0">
<rect width="450" height="110" fill="white"/>
</clipPath>
</defs>
</svg>
