<svg width="1440" height="114" viewBox="0 0 1440 114" fill="none" xmlns="http://www.w3.org/2000/svg">
<path d="M1440 0H0V100H1440V0Z" fill="black"/>
<path d="M211.06 41.6802H188.94V44.3302H211.06V41.6802Z" fill="white"/>
<path d="M211.06 48.6802H188.94V51.3302H211.06V48.6802Z" fill="white"/>
<path d="M211.06 55.6702H188.94V58.3202H211.06V55.6702Z" fill="white"/>
<path d="M1246.24 53.4201C1247.48 51.635 1248.14 49.5132 1248.14 47.3401C1248.14 44.8815 1247.3 42.496 1245.76 40.5793C1244.22 38.6626 1242.08 37.3298 1239.67 36.8019C1237.27 36.2741 1234.76 36.5829 1232.56 37.6772C1230.36 38.7715 1228.6 40.5856 1227.57 42.8184C1226.54 45.0513 1226.31 47.5688 1226.9 49.9535C1227.5 52.3383 1228.9 54.4468 1230.86 55.9296C1232.82 57.4123 1235.23 58.1801 1237.69 58.1056C1240.14 58.0311 1242.5 57.1188 1244.37 55.5201L1251.37 62.5201L1253.37 60.5201L1246.24 53.4201ZM1237.38 55.3101C1235.8 55.3101 1234.25 54.8409 1232.94 53.9618C1231.62 53.0828 1230.59 51.8334 1229.99 50.3715C1229.38 48.9097 1229.22 47.3012 1229.53 45.7494C1229.84 44.1975 1230.6 42.772 1231.72 41.6532C1232.84 40.5344 1234.27 39.7725 1235.82 39.4638C1237.37 39.1551 1238.98 39.3135 1240.44 39.919C1241.9 40.5245 1243.15 41.5499 1244.03 42.8655C1244.91 44.1811 1245.38 45.7278 1245.38 47.3101C1245.38 49.4318 1244.54 51.4666 1243.04 52.9669C1241.54 54.4672 1239.5 55.3101 1237.38 55.3101Z" fill="white"/>
<path opacity="0.8" d="M500.054 43.656L503.541 52.3572L507.027 43.656H508.851V54.3201H507.444V50.1672L507.576 45.6848L504.075 54.3201H502.999L499.505 45.7068L499.644 50.1672V54.3201H498.238V43.656H500.054ZM512.593 54.3201H511.238V46.3953H512.593V54.3201ZM511.128 44.2932C511.128 44.0735 511.194 43.8879 511.326 43.7366C511.463 43.5852 511.663 43.5095 511.927 43.5095C512.19 43.5095 512.391 43.5852 512.527 43.7366C512.664 43.8879 512.732 44.0735 512.732 44.2932C512.732 44.5129 512.664 44.696 512.527 44.8425C512.391 44.989 512.19 45.0623 511.927 45.0623C511.663 45.0623 511.463 44.989 511.326 44.8425C511.194 44.696 511.128 44.5129 511.128 44.2932ZM516.241 54.3201H514.886V43.0701H516.241V54.3201ZM519.888 54.3201H518.533V43.0701H519.888V54.3201ZM523.536 54.3201H522.181V46.3953H523.536V54.3201ZM522.071 44.2932C522.071 44.0735 522.137 43.8879 522.269 43.7366C522.405 43.5852 522.605 43.5095 522.869 43.5095C523.133 43.5095 523.333 43.5852 523.47 43.7366C523.606 43.8879 523.675 44.0735 523.675 44.2932C523.675 44.5129 523.606 44.696 523.47 44.8425C523.333 44.989 523.133 45.0623 522.869 45.0623C522.605 45.0623 522.405 44.989 522.269 44.8425C522.137 44.696 522.071 44.5129 522.071 44.2932ZM530.604 54.3201C530.525 54.1638 530.462 53.8855 530.413 53.4851C529.783 54.1394 529.031 54.4666 528.157 54.4666C527.376 54.4666 526.734 54.2468 526.231 53.8074C525.733 53.363 525.484 52.8015 525.484 52.1228C525.484 51.2976 525.796 50.658 526.421 50.2039C527.051 49.7449 527.935 49.5154 529.073 49.5154H530.391V48.8928C530.391 48.4192 530.25 48.0432 529.966 47.7649C529.683 47.4817 529.266 47.3401 528.714 47.3401C528.23 47.3401 527.825 47.4622 527.498 47.7063C527.171 47.9504 527.007 48.2458 527.007 48.5925H525.645C525.645 48.197 525.784 47.8162 526.062 47.45C526.346 47.0789 526.727 46.7859 527.205 46.571C527.688 46.3562 528.218 46.2488 528.794 46.2488C529.708 46.2488 530.423 46.4783 530.94 46.9373C531.458 47.3914 531.727 48.0188 531.746 48.8196V52.467C531.746 53.1946 531.839 53.7732 532.024 54.2029V54.3201H530.604ZM528.355 53.2874C528.78 53.2874 529.183 53.1775 529.563 52.9578C529.944 52.738 530.22 52.4524 530.391 52.1008V50.4749H529.329C527.669 50.4749 526.839 50.9607 526.839 51.9324C526.839 52.3572 526.98 52.6892 527.264 52.9285C527.547 53.1677 527.911 53.2874 528.355 53.2874ZM537.701 47.6111C537.496 47.5769 537.273 47.5598 537.034 47.5598C536.146 47.5598 535.542 47.9382 535.225 48.6951V54.3201H533.87V46.3953H535.188L535.21 47.3108C535.655 46.6028 536.285 46.2488 537.1 46.2488C537.364 46.2488 537.564 46.283 537.701 46.3513V47.6111ZM538.477 50.2917C538.477 49.0759 538.765 48.0994 539.341 47.3621C539.917 46.6199 540.672 46.2488 541.604 46.2488C542.532 46.2488 543.267 46.5662 543.809 47.2009V43.0701H545.164V54.3201H543.919L543.853 53.4705C543.311 54.1345 542.557 54.4666 541.59 54.4666C540.672 54.4666 539.922 54.0906 539.341 53.3386C538.765 52.5867 538.477 51.6052 538.477 50.3943V50.2917ZM539.832 50.4456C539.832 51.344 540.018 52.0471 540.389 52.5549C540.76 53.0627 541.272 53.3167 541.927 53.3167C542.786 53.3167 543.414 52.9309 543.809 52.1594V48.5193C543.404 47.7722 542.781 47.3987 541.941 47.3987C541.277 47.3987 540.76 47.655 540.389 48.1677C540.018 48.6804 539.832 49.4397 539.832 50.4456ZM552.166 54.3201C552.088 54.1638 552.024 53.8855 551.976 53.4851C551.346 54.1394 550.594 54.4666 549.72 54.4666C548.938 54.4666 548.296 54.2468 547.793 53.8074C547.295 53.363 547.046 52.8015 547.046 52.1228C547.046 51.2976 547.359 50.658 547.984 50.2039C548.614 49.7449 549.498 49.5154 550.635 49.5154H551.954V48.8928C551.954 48.4192 551.812 48.0432 551.529 47.7649C551.246 47.4817 550.828 47.3401 550.276 47.3401C549.793 47.3401 549.388 47.4622 549.061 47.7063C548.733 47.9504 548.57 48.2458 548.57 48.5925H547.208C547.208 48.197 547.347 47.8162 547.625 47.45C547.908 47.0789 548.289 46.7859 548.768 46.571C549.251 46.3562 549.781 46.2488 550.357 46.2488C551.27 46.2488 551.985 46.4783 552.503 46.9373C553.021 47.3914 553.289 48.0188 553.309 48.8196V52.467C553.309 53.1946 553.401 53.7732 553.587 54.2029V54.3201H552.166ZM549.917 53.2874C550.342 53.2874 550.745 53.1775 551.126 52.9578C551.507 52.738 551.783 52.4524 551.954 52.1008V50.4749H550.892C549.231 50.4749 548.401 50.9607 548.401 51.9324C548.401 52.3572 548.543 52.6892 548.826 52.9285C549.109 53.1677 549.473 53.2874 549.917 53.2874ZM548.145 44.2786C548.145 44.0588 548.211 43.8757 548.343 43.7292C548.479 43.5779 548.68 43.5022 548.943 43.5022C549.207 43.5022 549.407 43.5779 549.544 43.7292C549.681 43.8757 549.749 44.0588 549.749 44.2786C549.749 44.4983 549.681 44.6814 549.544 44.8279C549.407 44.9744 549.207 45.0476 548.943 45.0476C548.68 45.0476 548.479 44.9744 548.343 44.8279C548.211 44.6814 548.145 44.4983 548.145 44.2786ZM551.294 44.2932C551.294 44.0735 551.36 43.8879 551.492 43.7366C551.629 43.5852 551.829 43.5095 552.093 43.5095C552.356 43.5095 552.557 43.5852 552.693 43.7366C552.83 43.8879 552.898 44.0735 552.898 44.2932C552.898 44.5129 552.83 44.696 552.693 44.8425C552.557 44.989 552.356 45.0623 552.093 45.0623C551.829 45.0623 551.629 44.989 551.492 44.8425C551.36 44.696 551.294 44.5129 551.294 44.2932ZM559.263 47.6111C559.058 47.5769 558.836 47.5598 558.597 47.5598C557.708 47.5598 557.105 47.9382 556.788 48.6951V54.3201H555.433V46.3953H556.751L556.773 47.3108C557.217 46.6028 557.847 46.2488 558.663 46.2488C558.926 46.2488 559.126 46.283 559.263 46.3513V47.6111ZM563.658 54.4666C562.583 54.4666 561.709 54.115 561.036 53.4119C560.362 52.7039 560.025 51.759 560.025 50.5774V50.3284C560.025 49.5422 560.174 48.8416 560.472 48.2263C560.774 47.6062 561.194 47.1228 561.731 46.7761C562.273 46.4246 562.859 46.2488 563.489 46.2488C564.52 46.2488 565.32 46.5881 565.892 47.2668C566.463 47.9456 566.749 48.9172 566.749 50.1819V50.7458H561.38C561.399 51.5271 561.626 52.1594 562.061 52.6428C562.5 53.1213 563.057 53.3606 563.731 53.3606C564.209 53.3606 564.615 53.2629 564.947 53.0676C565.279 52.8723 565.569 52.6135 565.818 52.2913L566.646 52.9358C565.982 53.9563 564.986 54.4666 563.658 54.4666ZM563.489 47.3621C562.942 47.3621 562.483 47.5623 562.112 47.9626C561.741 48.3582 561.512 48.9148 561.424 49.6326H565.394V49.53C565.354 48.8416 565.169 48.3093 564.837 47.9333C564.505 47.5525 564.056 47.3621 563.489 47.3621Z" fill="white"/>
<path d="M600.747 54.3201H599.34V43.656H600.747V54.3201ZM604.394 46.3953L604.438 47.3914C605.043 46.6296 605.834 46.2488 606.811 46.2488C608.486 46.2488 609.331 47.1936 609.345 49.0833V54.3201H607.99V49.0759C607.985 48.5046 607.854 48.0823 607.595 47.8088C607.341 47.5354 606.943 47.3987 606.401 47.3987C605.961 47.3987 605.576 47.5159 605.244 47.7502C604.912 47.9846 604.653 48.2922 604.467 48.6731V54.3201H603.112V46.3953H604.394ZM612.67 46.3953L612.714 47.3914C613.32 46.6296 614.111 46.2488 615.087 46.2488C616.762 46.2488 617.607 47.1936 617.622 49.0833V54.3201H616.267V49.0759C616.262 48.5046 616.13 48.0823 615.871 47.8088C615.617 47.5354 615.219 47.3987 614.677 47.3987C614.238 47.3987 613.852 47.5159 613.52 47.7502C613.188 47.9846 612.929 48.2922 612.744 48.6731V54.3201H611.389V46.3953H612.67ZM619.306 50.2844C619.306 49.5081 619.458 48.8098 619.76 48.1897C620.068 47.5696 620.493 47.0911 621.035 46.7542C621.582 46.4172 622.204 46.2488 622.902 46.2488C623.981 46.2488 624.853 46.6223 625.517 47.3694C626.186 48.1165 626.521 49.1101 626.521 50.3503V50.4456C626.521 51.217 626.372 51.9104 626.074 52.5256C625.781 53.136 625.358 53.6121 624.807 53.9539C624.26 54.2957 623.63 54.4666 622.917 54.4666C621.843 54.4666 620.971 54.093 620.302 53.3459C619.638 52.5989 619.306 51.6101 619.306 50.3796V50.2844ZM620.668 50.4456C620.668 51.3245 620.871 52.03 621.276 52.5623C621.687 53.0945 622.233 53.3606 622.917 53.3606C623.605 53.3606 624.152 53.092 624.558 52.5549C624.963 52.0129 625.166 51.2561 625.166 50.2844C625.166 49.4153 624.958 48.7122 624.543 48.175C624.133 47.6331 623.586 47.3621 622.902 47.3621C622.233 47.3621 621.694 47.6282 621.284 48.1604C620.874 48.6926 620.668 49.4543 620.668 50.4456ZM630.717 52.4817L632.68 46.3953H634.064L631.223 54.3201H630.19L627.319 46.3953H628.703L630.717 52.4817ZM640.144 54.3201C640.065 54.1638 640.002 53.8855 639.953 53.4851C639.323 54.1394 638.571 54.4666 637.697 54.4666C636.916 54.4666 636.274 54.2468 635.771 53.8074C635.273 53.363 635.024 52.8015 635.024 52.1228C635.024 51.2976 635.336 50.658 635.961 50.2039C636.591 49.7449 637.475 49.5154 638.613 49.5154H639.931V48.8928C639.931 48.4192 639.79 48.0432 639.506 47.7649C639.223 47.4817 638.806 47.3401 638.254 47.3401C637.771 47.3401 637.365 47.4622 637.038 47.7063C636.711 47.9504 636.547 48.2458 636.547 48.5925H635.185C635.185 48.197 635.324 47.8162 635.603 47.45C635.886 47.0789 636.267 46.7859 636.745 46.571C637.229 46.3562 637.758 46.2488 638.334 46.2488C639.248 46.2488 639.963 46.4783 640.48 46.9373C640.998 47.3914 641.267 48.0188 641.286 48.8196V52.467C641.286 53.1946 641.379 53.7732 641.564 54.2029V54.3201H640.144ZM637.895 53.2874C638.32 53.2874 638.723 53.1775 639.104 52.9578C639.484 52.738 639.76 52.4524 639.931 52.1008V50.4749H638.869C637.209 50.4749 636.379 50.9607 636.379 51.9324C636.379 52.3572 636.521 52.6892 636.804 52.9285C637.087 53.1677 637.451 53.2874 637.895 53.2874ZM645.249 44.4763V46.3953H646.728V47.4426H645.249V52.3572C645.249 52.6746 645.314 52.9138 645.446 53.075C645.578 53.2312 645.803 53.3093 646.12 53.3093C646.276 53.3093 646.491 53.28 646.765 53.2214V54.3201C646.408 54.4177 646.062 54.4666 645.725 54.4666C645.119 54.4666 644.663 54.2834 644.355 53.9172C644.047 53.551 643.894 53.031 643.894 52.3572V47.4426H642.451V46.3953H643.894V44.4763H645.249ZM649.79 54.3201H648.435V46.3953H649.79V54.3201ZM648.325 44.2932C648.325 44.0735 648.391 43.8879 648.522 43.7366C648.659 43.5852 648.859 43.5095 649.123 43.5095C649.387 43.5095 649.587 43.5852 649.724 43.7366C649.86 43.8879 649.929 44.0735 649.929 44.2932C649.929 44.5129 649.86 44.696 649.724 44.8425C649.587 44.989 649.387 45.0623 649.123 45.0623C648.859 45.0623 648.659 44.989 648.522 44.8425C648.391 44.696 648.325 44.5129 648.325 44.2932ZM651.606 50.2844C651.606 49.5081 651.757 48.8098 652.06 48.1897C652.368 47.5696 652.792 47.0911 653.334 46.7542C653.881 46.4172 654.504 46.2488 655.202 46.2488C656.281 46.2488 657.153 46.6223 657.817 47.3694C658.486 48.1165 658.82 49.1101 658.82 50.3503V50.4456C658.82 51.217 658.671 51.9104 658.374 52.5256C658.081 53.136 657.658 53.6121 657.106 53.9539C656.56 54.2957 655.93 54.4666 655.217 54.4666C654.143 54.4666 653.271 54.093 652.602 53.3459C651.938 52.5989 651.606 51.6101 651.606 50.3796V50.2844ZM652.968 50.4456C652.968 51.3245 653.171 52.03 653.576 52.5623C653.986 53.0945 654.533 53.3606 655.217 53.3606C655.905 53.3606 656.452 53.092 656.857 52.5549C657.263 52.0129 657.465 51.2561 657.465 50.2844C657.465 49.4153 657.258 48.7122 656.843 48.175C656.433 47.6331 655.886 47.3621 655.202 47.3621C654.533 47.3621 653.994 47.6282 653.583 48.1604C653.173 48.6926 652.968 49.4543 652.968 50.4456ZM661.801 46.3953L661.845 47.3914C662.451 46.6296 663.242 46.2488 664.218 46.2488C665.893 46.2488 666.738 47.1936 666.752 49.0833V54.3201H665.397V49.0759C665.393 48.5046 665.261 48.0823 665.002 47.8088C664.748 47.5354 664.35 47.3987 663.808 47.3987C663.369 47.3987 662.983 47.5159 662.651 47.7502C662.319 47.9846 662.06 48.2922 661.875 48.6731V54.3201H660.52V46.3953H661.801Z" fill="#29ABE2"/>
<path opacity="0.8" d="M707.111 52.9211C706.75 53.4387 706.245 53.8269 705.595 54.0857C704.951 54.3396 704.199 54.4666 703.339 54.4666C702.47 54.4666 701.699 54.2639 701.025 53.8586C700.351 53.4485 699.829 52.8674 699.458 52.1155C699.091 51.3635 698.903 50.4919 698.894 49.5007V48.5706C698.894 46.9641 699.267 45.719 700.014 44.8352C700.766 43.9514 701.821 43.5095 703.178 43.5095C704.292 43.5095 705.188 43.7952 705.866 44.3665C706.545 44.9329 706.96 45.7385 707.111 46.7834H705.705C705.441 45.3723 704.602 44.6667 703.186 44.6667C702.243 44.6667 701.528 44.9988 701.04 45.6628C700.556 46.322 700.312 47.2791 700.307 48.5339V49.4055C700.307 50.6018 700.581 51.554 701.127 52.262C701.674 52.9651 702.414 53.3167 703.347 53.3167C703.874 53.3167 704.335 53.2581 704.731 53.1409C705.126 53.0237 705.454 52.8259 705.712 52.5476V50.1526H703.244V49.01H707.111V52.9211ZM712.539 54.4666C711.464 54.4666 710.59 54.115 709.917 53.4119C709.243 52.7039 708.906 51.759 708.906 50.5774V50.3284C708.906 49.5422 709.055 48.8416 709.353 48.2263C709.655 47.6062 710.075 47.1228 710.612 46.7761C711.154 46.4246 711.74 46.2488 712.37 46.2488C713.4 46.2488 714.201 46.5881 714.772 47.2668C715.344 47.9456 715.629 48.9172 715.629 50.1819V50.7458H710.261C710.28 51.5271 710.507 52.1594 710.942 52.6428C711.381 53.1213 711.938 53.3606 712.612 53.3606C713.09 53.3606 713.496 53.2629 713.828 53.0676C714.16 52.8723 714.45 52.6135 714.699 52.2913L715.527 52.9358C714.863 53.9563 713.867 54.4666 712.539 54.4666ZM712.37 47.3621C711.823 47.3621 711.364 47.5623 710.993 47.9626C710.622 48.3582 710.393 48.9148 710.305 49.6326H714.274V49.53C714.235 48.8416 714.05 48.3093 713.718 47.9333C713.386 47.5525 712.937 47.3621 712.37 47.3621ZM721.818 52.218C721.818 51.8518 721.679 51.5686 721.401 51.3684C721.127 51.1633 720.646 50.9875 719.958 50.8411C719.274 50.6946 718.73 50.5188 718.325 50.3137C717.924 50.1086 717.626 49.8645 717.431 49.5813C717.241 49.2981 717.146 48.9612 717.146 48.5706C717.146 47.9211 717.419 47.3718 717.966 46.9226C718.518 46.4734 719.221 46.2488 720.075 46.2488C720.974 46.2488 721.701 46.4807 722.258 46.9446C722.819 47.4084 723.1 48.0017 723.1 48.7244H721.738C721.738 48.3533 721.579 48.0334 721.262 47.7649C720.949 47.4963 720.554 47.3621 720.075 47.3621C719.582 47.3621 719.196 47.4695 718.918 47.6843C718.64 47.8992 718.5 48.1799 718.5 48.5266C718.5 48.8538 718.63 49.1003 718.889 49.2664C719.147 49.4324 719.614 49.5911 720.288 49.7424C720.966 49.8938 721.516 50.0745 721.936 50.2844C722.355 50.4944 722.666 50.7483 722.866 51.0461C723.071 51.3391 723.173 51.698 723.173 52.1228C723.173 52.8308 722.89 53.3997 722.324 53.8293C721.757 54.2542 721.022 54.4666 720.119 54.4666C719.484 54.4666 718.923 54.3542 718.435 54.1296C717.946 53.905 717.563 53.5925 717.285 53.1921C717.011 52.7869 716.875 52.3499 716.875 51.8811H718.229C718.254 52.3352 718.435 52.6965 718.771 52.9651C719.113 53.2288 719.562 53.3606 720.119 53.3606C720.632 53.3606 721.042 53.2581 721.35 53.053C721.662 52.843 721.818 52.5647 721.818 52.218ZM728.117 53.3606C728.601 53.3606 729.023 53.2141 729.384 52.9211C729.746 52.6282 729.946 52.262 729.985 51.8225H731.267C731.242 52.2766 731.086 52.7087 730.798 53.1189C730.51 53.5291 730.124 53.8562 729.641 54.1003C729.162 54.3445 728.654 54.4666 728.117 54.4666C727.038 54.4666 726.179 54.1077 725.539 53.3899C724.904 52.6672 724.587 51.6809 724.587 50.4309V50.2039C724.587 49.4324 724.729 48.7463 725.012 48.1458C725.295 47.5452 725.7 47.0789 726.228 46.7468C726.76 46.4148 727.387 46.2488 728.11 46.2488C728.999 46.2488 729.736 46.5149 730.322 47.0471C730.913 47.5793 731.228 48.2703 731.267 49.1199H729.985C729.946 48.6072 729.75 48.1873 729.399 47.8601C729.052 47.5281 728.623 47.3621 728.11 47.3621C727.421 47.3621 726.887 47.6111 726.506 48.1091C726.13 48.6023 725.942 49.3176 725.942 50.2551V50.5115C725.942 51.4246 726.13 52.1277 726.506 52.6208C726.882 53.114 727.419 53.3606 728.117 53.3606ZM734.145 47.3547C734.746 46.6174 735.527 46.2488 736.489 46.2488C738.164 46.2488 739.008 47.1936 739.023 49.0833V54.3201H737.668V49.0759C737.663 48.5046 737.531 48.0823 737.272 47.8088C737.019 47.5354 736.621 47.3987 736.079 47.3987C735.639 47.3987 735.253 47.5159 734.921 47.7502C734.589 47.9846 734.331 48.2922 734.145 48.6731V54.3201H732.79V43.0701H734.145V47.3547ZM745.944 54.3201C745.866 54.1638 745.803 53.8855 745.754 53.4851C745.124 54.1394 744.372 54.4666 743.498 54.4666C742.717 54.4666 742.075 54.2468 741.572 53.8074C741.074 53.363 740.825 52.8015 740.825 52.1228C740.825 51.2976 741.137 50.658 741.762 50.2039C742.392 49.7449 743.276 49.5154 744.414 49.5154H745.732V48.8928C745.732 48.4192 745.59 48.0432 745.307 47.7649C745.024 47.4817 744.606 47.3401 744.055 47.3401C743.571 47.3401 743.166 47.4622 742.839 47.7063C742.512 47.9504 742.348 48.2458 742.348 48.5925H740.986C740.986 48.197 741.125 47.8162 741.403 47.45C741.687 47.0789 742.067 46.7859 742.546 46.571C743.029 46.3562 743.559 46.2488 744.135 46.2488C745.048 46.2488 745.764 46.4783 746.281 46.9373C746.799 47.3914 747.067 48.0188 747.087 48.8196V52.467C747.087 53.1946 747.18 53.7732 747.365 54.2029V54.3201H745.944ZM743.696 53.2874C744.121 53.2874 744.523 53.1775 744.904 52.9578C745.285 52.738 745.561 52.4524 745.732 52.1008V50.4749H744.67C743.01 50.4749 742.18 50.9607 742.18 51.9324C742.18 52.3572 742.321 52.6892 742.604 52.9285C742.888 53.1677 743.251 53.2874 743.696 53.2874ZM741.923 44.2786C741.923 44.0588 741.989 43.8757 742.121 43.7292C742.258 43.5779 742.458 43.5022 742.722 43.5022C742.985 43.5022 743.186 43.5779 743.322 43.7292C743.459 43.8757 743.527 44.0588 743.527 44.2786C743.527 44.4983 743.459 44.6814 743.322 44.8279C743.186 44.9744 742.985 45.0476 742.722 45.0476C742.458 45.0476 742.258 44.9744 742.121 44.8279C741.989 44.6814 741.923 44.4983 741.923 44.2786ZM745.073 44.2932C745.073 44.0735 745.139 43.8879 745.271 43.7366C745.407 43.5852 745.607 43.5095 745.871 43.5095C746.135 43.5095 746.335 43.5852 746.472 43.7366C746.608 43.8879 746.677 44.0735 746.677 44.2932C746.677 44.5129 746.608 44.696 746.472 44.8425C746.335 44.989 746.135 45.0623 745.871 45.0623C745.607 45.0623 745.407 44.989 745.271 44.8425C745.139 44.696 745.073 44.5129 745.073 44.2932ZM749.877 54.3201V47.4426H748.625V46.3953H749.877V45.5823C749.877 44.7327 750.104 44.0759 750.559 43.6121C751.013 43.1482 751.655 42.9163 752.485 42.9163C752.797 42.9163 753.107 42.9578 753.415 43.0408L753.342 44.1394C753.112 44.0955 752.868 44.0735 752.609 44.0735C752.17 44.0735 751.831 44.2029 751.591 44.4617C751.352 44.7156 751.232 45.0818 751.232 45.5603V46.3953H752.924V47.4426H751.232V54.3201H749.877ZM756.264 44.4763V46.3953H757.744V47.4426H756.264V52.3572C756.264 52.6746 756.33 52.9138 756.462 53.075C756.594 53.2312 756.818 53.3093 757.136 53.3093C757.292 53.3093 757.507 53.28 757.78 53.2214V54.3201C757.424 54.4177 757.077 54.4666 756.74 54.4666C756.135 54.4666 755.678 54.2834 755.371 53.9172C755.063 53.551 754.909 53.031 754.909 52.3572V47.4426H753.466V46.3953H754.909V44.4763H756.264Z" fill="white"/>
<path opacity="0.8" d="M792.948 49.3616L791.644 50.7166V54.3201H790.238V43.656H791.644V48.9294L796.383 43.656H798.082L793.885 48.3655L798.412 54.3201H796.727L792.948 49.3616ZM800.902 54.3201H799.547V43.0701H800.902V54.3201ZM806.366 54.4666C805.292 54.4666 804.417 54.115 803.744 53.4119C803.07 52.7039 802.733 51.759 802.733 50.5774V50.3284C802.733 49.5422 802.882 48.8416 803.18 48.2263C803.482 47.6062 803.902 47.1228 804.439 46.7761C804.981 46.4246 805.567 46.2488 806.197 46.2488C807.228 46.2488 808.028 46.5881 808.6 47.2668C809.171 47.9456 809.457 48.9172 809.457 50.1819V50.7458H804.088C804.107 51.5271 804.334 52.1594 804.769 52.6428C805.208 53.1213 805.765 53.3606 806.439 53.3606C806.917 53.3606 807.323 53.2629 807.655 53.0676C807.987 52.8723 808.277 52.6135 808.526 52.2913L809.354 52.9358C808.69 53.9563 807.694 54.4666 806.366 54.4666ZM806.197 47.3621C805.65 47.3621 805.191 47.5623 804.82 47.9626C804.449 48.3582 804.22 48.9148 804.132 49.6326H808.102V49.53C808.062 48.8416 807.877 48.3093 807.545 47.9333C807.213 47.5525 806.764 47.3621 806.197 47.3621ZM812.503 54.3201H811.148V46.3953H812.503V54.3201ZM811.039 44.2932C811.039 44.0735 811.104 43.8879 811.236 43.7366C811.373 43.5852 811.573 43.5095 811.837 43.5095C812.101 43.5095 812.301 43.5852 812.438 43.7366C812.574 43.8879 812.643 44.0735 812.643 44.2932C812.643 44.5129 812.574 44.696 812.438 44.8425C812.301 44.989 812.101 45.0623 811.837 45.0623C811.573 45.0623 811.373 44.989 811.236 44.8425C811.104 44.696 811.039 44.5129 811.039 44.2932ZM815.96 46.3953L816.004 47.3914C816.61 46.6296 817.401 46.2488 818.377 46.2488C820.052 46.2488 820.897 47.1936 820.912 49.0833V54.3201H819.557V49.0759C819.552 48.5046 819.42 48.0823 819.161 47.8088C818.907 47.5354 818.509 47.3987 817.967 47.3987C817.528 47.3987 817.142 47.5159 816.81 47.7502C816.478 47.9846 816.219 48.2922 816.034 48.6731V54.3201H814.679V46.3953H815.96ZM827.848 53.5364C827.32 54.1565 826.546 54.4666 825.526 54.4666C824.681 54.4666 824.037 54.2224 823.592 53.7341C823.153 53.241 822.931 52.5134 822.926 51.5515V46.3953H824.281V51.5149C824.281 52.7161 824.769 53.3167 825.746 53.3167C826.781 53.3167 827.469 52.9309 827.811 52.1594V46.3953H829.166V54.3201H827.877L827.848 53.5364ZM832.513 46.3953L832.557 47.3914C833.163 46.6296 833.954 46.2488 834.93 46.2488C836.605 46.2488 837.45 47.1936 837.464 49.0833V54.3201H836.109V49.0759C836.104 48.5046 835.973 48.0823 835.714 47.8088C835.46 47.5354 835.062 47.3987 834.52 47.3987C834.081 47.3987 833.695 47.5159 833.363 47.7502C833.031 47.9846 832.772 48.2922 832.586 48.6731V54.3201H831.231V46.3953H832.513ZM841.346 44.4763V46.3953H842.826V47.4426H841.346V52.3572C841.346 52.6746 841.412 52.9138 841.544 53.075C841.676 53.2312 841.9 53.3093 842.218 53.3093C842.374 53.3093 842.589 53.28 842.862 53.2214V54.3201C842.506 54.4177 842.159 54.4666 841.822 54.4666C841.217 54.4666 840.76 54.2834 840.453 53.9172C840.145 53.551 839.991 53.031 839.991 52.3572V47.4426H838.548V46.3953H839.991V44.4763H841.346ZM847.704 54.4666C846.629 54.4666 845.755 54.115 845.082 53.4119C844.408 52.7039 844.071 51.759 844.071 50.5774V50.3284C844.071 49.5422 844.22 48.8416 844.518 48.2263C844.82 47.6062 845.24 47.1228 845.777 46.7761C846.319 46.4246 846.905 46.2488 847.535 46.2488C848.565 46.2488 849.366 46.5881 849.938 47.2668C850.509 47.9456 850.794 48.9172 850.794 50.1819V50.7458H845.426C845.445 51.5271 845.672 52.1594 846.107 52.6428C846.546 53.1213 847.103 53.3606 847.777 53.3606C848.255 53.3606 848.661 53.2629 848.993 53.0676C849.325 52.8723 849.615 52.6135 849.864 52.2913L850.692 52.9358C850.028 53.9563 849.032 54.4666 847.704 54.4666ZM847.535 47.3621C846.988 47.3621 846.529 47.5623 846.158 47.9626C845.787 48.3582 845.558 48.9148 845.47 49.6326H849.439V49.53C849.4 48.8416 849.215 48.3093 848.883 47.9333C848.551 47.5525 848.102 47.3621 847.535 47.3621ZM856.2 47.6111C855.995 47.5769 855.772 47.5598 855.533 47.5598C854.645 47.5598 854.042 47.9382 853.724 48.6951V54.3201H852.369V46.3953H853.688L853.709 47.3108C854.154 46.6028 854.784 46.2488 855.599 46.2488C855.863 46.2488 856.063 46.283 856.2 46.3513V47.6111ZM858.734 46.3953L858.778 47.3914C859.383 46.6296 860.174 46.2488 861.151 46.2488C862.826 46.2488 863.67 47.1936 863.685 49.0833V54.3201H862.33V49.0759C862.325 48.5046 862.193 48.0823 861.935 47.8088C861.681 47.5354 861.283 47.3987 860.741 47.3987C860.301 47.3987 859.916 47.5159 859.583 47.7502C859.251 47.9846 858.993 48.2922 858.807 48.6731V54.3201H857.452V46.3953H858.734ZM869.017 54.4666C867.943 54.4666 867.069 54.115 866.395 53.4119C865.721 52.7039 865.384 51.759 865.384 50.5774V50.3284C865.384 49.5422 865.533 48.8416 865.831 48.2263C866.134 47.6062 866.554 47.1228 867.091 46.7761C867.633 46.4246 868.219 46.2488 868.849 46.2488C869.879 46.2488 870.68 46.5881 871.251 47.2668C871.822 47.9456 872.108 48.9172 872.108 50.1819V50.7458H866.739C866.759 51.5271 866.986 52.1594 867.42 52.6428C867.86 53.1213 868.417 53.3606 869.09 53.3606C869.569 53.3606 869.974 53.2629 870.306 53.0676C870.638 52.8723 870.929 52.6135 871.178 52.2913L872.005 52.9358C871.341 53.9563 870.345 54.4666 869.017 54.4666ZM868.849 47.3621C868.302 47.3621 867.843 47.5623 867.472 47.9626C867.101 48.3582 866.871 48.9148 866.783 49.6326H870.753V49.53C870.714 48.8416 870.528 48.3093 870.196 47.9333C869.864 47.5525 869.415 47.3621 868.849 47.3621ZM875.038 47.3547C875.638 46.6174 876.419 46.2488 877.381 46.2488C879.056 46.2488 879.901 47.1936 879.916 49.0833V54.3201H878.561V49.0759C878.556 48.5046 878.424 48.0823 878.165 47.8088C877.911 47.5354 877.513 47.3987 876.971 47.3987C876.532 47.3987 876.146 47.5159 875.814 47.7502C875.482 47.9846 875.223 48.2922 875.038 48.6731V54.3201H873.683V43.0701H875.038V47.3547ZM883.219 46.3953L883.255 47.2742C883.836 46.5906 884.62 46.2488 885.606 46.2488C886.715 46.2488 887.469 46.6736 887.87 47.5232C888.133 47.1423 888.475 46.8347 888.895 46.6003C889.32 46.366 889.82 46.2488 890.396 46.2488C892.135 46.2488 893.019 47.1692 893.048 49.01V54.3201H891.693V49.0906C891.693 48.5242 891.563 48.1018 891.305 47.8235C891.046 47.5403 890.611 47.3987 890.001 47.3987C889.498 47.3987 889.081 47.55 888.749 47.8528C888.417 48.1506 888.224 48.5535 888.17 49.0613V54.3201H886.808V49.1272C886.808 47.9749 886.244 47.3987 885.116 47.3987C884.227 47.3987 883.619 47.7771 883.292 48.5339V54.3201H881.937V46.3953H883.219ZM898.387 54.4666C897.313 54.4666 896.439 54.115 895.765 53.4119C895.091 52.7039 894.754 51.759 894.754 50.5774V50.3284C894.754 49.5422 894.903 48.8416 895.201 48.2263C895.504 47.6062 895.924 47.1228 896.461 46.7761C897.003 46.4246 897.589 46.2488 898.219 46.2488C899.249 46.2488 900.05 46.5881 900.621 47.2668C901.192 47.9456 901.478 48.9172 901.478 50.1819V50.7458H896.109C896.129 51.5271 896.356 52.1594 896.791 52.6428C897.23 53.1213 897.787 53.3606 898.46 53.3606C898.939 53.3606 899.344 53.2629 899.676 53.0676C900.008 52.8723 900.299 52.6135 900.548 52.2913L901.375 52.9358C900.711 53.9563 899.715 54.4666 898.387 54.4666ZM898.219 47.3621C897.672 47.3621 897.213 47.5623 896.842 47.9626C896.471 48.3582 896.241 48.9148 896.153 49.6326H900.123V49.53C900.084 48.8416 899.898 48.3093 899.566 47.9333C899.234 47.5525 898.785 47.3621 898.219 47.3621ZM904.334 46.3953L904.378 47.3914C904.984 46.6296 905.775 46.2488 906.751 46.2488C908.426 46.2488 909.271 47.1936 909.286 49.0833V54.3201H907.931V49.0759C907.926 48.5046 907.794 48.0823 907.535 47.8088C907.281 47.5354 906.883 47.3987 906.341 47.3987C905.902 47.3987 905.516 47.5159 905.184 47.7502C904.852 47.9846 904.593 48.2922 904.408 48.6731V54.3201H903.053V46.3953H904.334Z" fill="white"/>
<path opacity="0.8" d="M943.651 53.1702H948.705V54.3201H942.238V43.656H943.651V53.1702ZM953.385 54.4666C952.311 54.4666 951.437 54.115 950.763 53.4119C950.089 52.7039 949.752 51.759 949.752 50.5774V50.3284C949.752 49.5422 949.901 48.8416 950.199 48.2263C950.502 47.6062 950.922 47.1228 951.459 46.7761C952.001 46.4246 952.587 46.2488 953.217 46.2488C954.247 46.2488 955.048 46.5881 955.619 47.2668C956.19 47.9456 956.476 48.9172 956.476 50.1819V50.7458H951.107C951.127 51.5271 951.354 52.1594 951.789 52.6428C952.228 53.1213 952.785 53.3606 953.458 53.3606C953.937 53.3606 954.342 53.2629 954.674 53.0676C955.006 52.8723 955.297 52.6135 955.546 52.2913L956.374 52.9358C955.709 53.9563 954.713 54.4666 953.385 54.4666ZM953.217 47.3621C952.67 47.3621 952.211 47.5623 951.84 47.9626C951.469 48.3582 951.239 48.9148 951.151 49.6326H955.121V49.53C955.082 48.8416 954.896 48.3093 954.564 47.9333C954.232 47.5525 953.783 47.3621 953.217 47.3621ZM964.76 50.4456C964.76 51.6565 964.481 52.6306 963.925 53.3679C963.368 54.1003 962.621 54.4666 961.684 54.4666C960.683 54.4666 959.909 54.1125 959.362 53.4045L959.296 54.3201H958.051V43.0701H959.406V47.2668C959.953 46.5881 960.707 46.2488 961.669 46.2488C962.631 46.2488 963.385 46.6125 963.932 47.3401C964.484 48.0676 964.76 49.0637 964.76 50.3284V50.4456ZM963.405 50.2917C963.405 49.3689 963.227 48.656 962.87 48.1531C962.514 47.6501 962.001 47.3987 961.332 47.3987C960.438 47.3987 959.796 47.8137 959.406 48.6438V52.0715C959.821 52.9016 960.468 53.3167 961.347 53.3167C961.996 53.3167 962.501 53.0652 962.863 52.5623C963.224 52.0593 963.405 51.3025 963.405 50.2917ZM969.762 54.4666C968.688 54.4666 967.814 54.115 967.14 53.4119C966.466 52.7039 966.129 51.759 966.129 50.5774V50.3284C966.129 49.5422 966.278 48.8416 966.576 48.2263C966.879 47.6062 967.299 47.1228 967.836 46.7761C968.378 46.4246 968.964 46.2488 969.594 46.2488C970.624 46.2488 971.425 46.5881 971.996 47.2668C972.567 47.9456 972.853 48.9172 972.853 50.1819V50.7458H967.484C967.504 51.5271 967.731 52.1594 968.166 52.6428C968.605 53.1213 969.162 53.3606 969.835 53.3606C970.314 53.3606 970.719 53.2629 971.051 53.0676C971.383 52.8723 971.674 52.6135 971.923 52.2913L972.75 52.9358C972.086 53.9563 971.09 54.4666 969.762 54.4666ZM969.594 47.3621C969.047 47.3621 968.588 47.5623 968.217 47.9626C967.846 48.3582 967.616 48.9148 967.528 49.6326H971.498V49.53C971.459 48.8416 971.273 48.3093 970.941 47.9333C970.609 47.5525 970.16 47.3621 969.594 47.3621ZM975.709 46.3953L975.753 47.3914C976.359 46.6296 977.15 46.2488 978.126 46.2488C979.801 46.2488 980.646 47.1936 980.661 49.0833V54.3201H979.306V49.0759C979.301 48.5046 979.169 48.0823 978.91 47.8088C978.656 47.5354 978.258 47.3987 977.716 47.3987C977.277 47.3987 976.891 47.5159 976.559 47.7502C976.227 47.9846 975.968 48.2922 975.783 48.6731V54.3201H974.428V46.3953H975.709ZM987.318 52.218C987.318 51.8518 987.179 51.5686 986.901 51.3684C986.627 51.1633 986.146 50.9875 985.458 50.8411C984.774 50.6946 984.23 50.5188 983.825 50.3137C983.424 50.1086 983.126 49.8645 982.931 49.5813C982.741 49.2981 982.646 48.9612 982.646 48.5706C982.646 47.9211 982.919 47.3718 983.466 46.9226C984.018 46.4734 984.721 46.2488 985.575 46.2488C986.474 46.2488 987.201 46.4807 987.758 46.9446C988.319 47.4084 988.6 48.0017 988.6 48.7244H987.238C987.238 48.3533 987.079 48.0334 986.762 47.7649C986.449 47.4963 986.054 47.3621 985.575 47.3621C985.082 47.3621 984.696 47.4695 984.418 47.6843C984.14 47.8992 984 48.1799 984 48.5266C984 48.8538 984.13 49.1003 984.389 49.2664C984.647 49.4324 985.114 49.5911 985.788 49.7424C986.466 49.8938 987.016 50.0745 987.436 50.2844C987.855 50.4944 988.166 50.7483 988.366 51.0461C988.571 51.3391 988.673 51.698 988.673 52.1228C988.673 52.8308 988.39 53.3997 987.824 53.8293C987.257 54.2542 986.522 54.4666 985.619 54.4666C984.984 54.4666 984.423 54.3542 983.935 54.1296C983.446 53.905 983.063 53.5925 982.785 53.1921C982.511 52.7869 982.375 52.3499 982.375 51.8811H983.729C983.754 52.3352 983.935 52.6965 984.271 52.9651C984.613 53.2288 985.062 53.3606 985.619 53.3606C986.132 53.3606 986.542 53.2581 986.85 53.053C987.162 52.843 987.318 52.5647 987.318 52.218ZM995.053 52.218C995.053 51.8518 994.914 51.5686 994.635 51.3684C994.362 51.1633 993.881 50.9875 993.192 50.8411C992.509 50.6946 991.964 50.5188 991.559 50.3137C991.159 50.1086 990.861 49.8645 990.666 49.5813C990.475 49.2981 990.38 48.9612 990.38 48.5706C990.38 47.9211 990.653 47.3718 991.2 46.9226C991.752 46.4734 992.455 46.2488 993.31 46.2488C994.208 46.2488 994.936 46.4807 995.492 46.9446C996.054 47.4084 996.334 48.0017 996.334 48.7244H994.972C994.972 48.3533 994.813 48.0334 994.496 47.7649C994.184 47.4963 993.788 47.3621 993.31 47.3621C992.816 47.3621 992.431 47.4695 992.152 47.6843C991.874 47.8992 991.735 48.1799 991.735 48.5266C991.735 48.8538 991.864 49.1003 992.123 49.2664C992.382 49.4324 992.848 49.5911 993.522 49.7424C994.201 49.8938 994.75 50.0745 995.17 50.2844C995.59 50.4944 995.9 50.7483 996.1 51.0461C996.305 51.3391 996.408 51.698 996.408 52.1228C996.408 52.8308 996.125 53.3997 995.558 53.8293C994.992 54.2542 994.257 54.4666 993.354 54.4666C992.719 54.4666 992.157 54.3542 991.669 54.1296C991.181 53.905 990.797 53.5925 990.519 53.1921C990.246 52.7869 990.109 52.3499 990.109 51.8811H991.464C991.488 52.3352 991.669 52.6965 992.006 52.9651C992.348 53.2288 992.797 53.3606 993.354 53.3606C993.866 53.3606 994.276 53.2581 994.584 53.053C994.896 52.843 995.053 52.5647 995.053 52.218ZM1000.01 44.4763V46.3953H1001.49V47.4426H1000.01V52.3572C1000.01 52.6746 1000.08 52.9138 1000.21 53.075C1000.34 53.2312 1000.57 53.3093 1000.88 53.3093C1001.04 53.3093 1001.25 53.28 1001.53 53.2214V54.3201C1001.17 54.4177 1000.82 54.4666 1000.49 54.4666C999.882 54.4666 999.425 54.2834 999.118 53.9172C998.81 53.551 998.656 53.031 998.656 52.3572V47.4426H997.213V46.3953H998.656V44.4763H1000.01ZM1004.55 54.3201H1003.2V46.3953H1004.55V54.3201ZM1003.09 44.2932C1003.09 44.0735 1003.15 43.8879 1003.29 43.7366C1003.42 43.5852 1003.62 43.5095 1003.89 43.5095C1004.15 43.5095 1004.35 43.5852 1004.49 43.7366C1004.62 43.8879 1004.69 44.0735 1004.69 44.2932C1004.69 44.5129 1004.62 44.696 1004.49 44.8425C1004.35 44.989 1004.15 45.0623 1003.89 45.0623C1003.62 45.0623 1003.42 44.989 1003.29 44.8425C1003.15 44.696 1003.09 44.5129 1003.09 44.2932ZM1008.2 54.3201H1006.84V43.0701H1008.2V54.3201Z" fill="white"/>
<path opacity="0.8" d="M1047.13 51.5369H1042.66L1041.66 54.3201H1040.21L1044.28 43.656H1045.51L1049.59 54.3201H1048.14L1047.13 51.5369ZM1043.08 50.3796H1046.71L1044.89 45.3918L1043.08 50.3796ZM1053.02 50.6506L1052.17 51.5369V54.3201H1050.82V43.0701H1052.17V49.8743L1052.9 49.0027L1055.37 46.3953H1057.01L1053.93 49.7058L1057.37 54.3201H1055.78L1053.02 50.6506ZM1060.25 44.4763V46.3953H1061.73V47.4426H1060.25V52.3572C1060.25 52.6746 1060.32 52.9138 1060.45 53.075C1060.58 53.2312 1060.81 53.3093 1061.12 53.3093C1061.28 53.3093 1061.49 53.28 1061.77 53.2214V54.3201C1061.41 54.4177 1061.06 54.4666 1060.73 54.4666C1060.12 54.4666 1059.67 54.2834 1059.36 53.9172C1059.05 53.551 1058.9 53.031 1058.9 52.3572V47.4426H1057.45V46.3953H1058.9V44.4763H1060.25ZM1068.21 53.5364C1067.69 54.1565 1066.91 54.4666 1065.89 54.4666C1065.05 54.4666 1064.4 54.2224 1063.96 53.7341C1063.52 53.241 1063.3 52.5134 1063.29 51.5515V46.3953H1064.65V51.5149C1064.65 52.7161 1065.13 53.3167 1066.11 53.3167C1067.15 53.3167 1067.83 52.9309 1068.18 52.1594V46.3953H1069.53V54.3201H1068.24L1068.21 53.5364ZM1074.89 54.4666C1073.81 54.4666 1072.94 54.115 1072.26 53.4119C1071.59 52.7039 1071.25 51.759 1071.25 50.5774V50.3284C1071.25 49.5422 1071.4 48.8416 1071.7 48.2263C1072 47.6062 1072.42 47.1228 1072.96 46.7761C1073.5 46.4246 1074.09 46.2488 1074.72 46.2488C1075.75 46.2488 1076.55 46.5881 1077.12 47.2668C1077.69 47.9456 1077.98 48.9172 1077.98 50.1819V50.7458H1072.61C1072.63 51.5271 1072.85 52.1594 1073.29 52.6428C1073.73 53.1213 1074.28 53.3606 1074.96 53.3606C1075.44 53.3606 1075.84 53.2629 1076.17 53.0676C1076.51 52.8723 1076.8 52.6135 1077.05 52.2913L1077.87 52.9358C1077.21 53.9563 1076.21 54.4666 1074.89 54.4666ZM1074.72 47.3621C1074.17 47.3621 1073.71 47.5623 1073.34 47.9626C1072.97 48.3582 1072.74 48.9148 1072.65 49.6326H1076.62V49.53C1076.58 48.8416 1076.4 48.3093 1076.06 47.9333C1075.73 47.5525 1075.28 47.3621 1074.72 47.3621ZM1081.02 54.3201H1079.67V43.0701H1081.02V54.3201ZM1084.67 54.3201H1083.32V43.0701H1084.67V54.3201ZM1090.13 54.4666C1089.06 54.4666 1088.19 54.115 1087.51 53.4119C1086.84 52.7039 1086.5 51.759 1086.5 50.5774V50.3284C1086.5 49.5422 1086.65 48.8416 1086.95 48.2263C1087.25 47.6062 1087.67 47.1228 1088.21 46.7761C1088.75 46.4246 1089.34 46.2488 1089.97 46.2488C1091 46.2488 1091.8 46.5881 1092.37 47.2668C1092.94 47.9456 1093.23 48.9172 1093.23 50.1819V50.7458H1087.86C1087.88 51.5271 1088.1 52.1594 1088.54 52.6428C1088.98 53.1213 1089.53 53.3606 1090.21 53.3606C1090.69 53.3606 1091.09 53.2629 1091.42 53.0676C1091.76 52.8723 1092.05 52.6135 1092.29 52.2913L1093.12 52.9358C1092.46 53.9563 1091.46 54.4666 1090.13 54.4666ZM1089.97 47.3621C1089.42 47.3621 1088.96 47.5623 1088.59 47.9626C1088.22 48.3582 1087.99 48.9148 1087.9 49.6326H1091.87V49.53C1091.83 48.8416 1091.65 48.3093 1091.31 47.9333C1090.98 47.5525 1090.53 47.3621 1089.97 47.3621ZM1106.93 54.3201H1105.52L1100.15 46.1023V54.3201H1098.73V43.656H1100.15L1105.53 51.9104V43.656H1106.93V54.3201ZM1114.11 54.3201C1114.03 54.1638 1113.96 53.8855 1113.92 53.4851C1113.29 54.1394 1112.53 54.4666 1111.66 54.4666C1110.88 54.4666 1110.24 54.2468 1109.73 53.8074C1109.24 53.363 1108.99 52.8015 1108.99 52.1228C1108.99 51.2976 1109.3 50.658 1109.92 50.2039C1110.55 49.7449 1111.44 49.5154 1112.58 49.5154H1113.89V48.8928C1113.89 48.4192 1113.75 48.0432 1113.47 47.7649C1113.19 47.4817 1112.77 47.3401 1112.22 47.3401C1111.73 47.3401 1111.33 47.4622 1111 47.7063C1110.67 47.9504 1110.51 48.2458 1110.51 48.5925H1109.15C1109.15 48.197 1109.29 47.8162 1109.57 47.45C1109.85 47.0789 1110.23 46.7859 1110.71 46.571C1111.19 46.3562 1111.72 46.2488 1112.3 46.2488C1113.21 46.2488 1113.93 46.4783 1114.44 46.9373C1114.96 47.3914 1115.23 48.0188 1115.25 48.8196V52.467C1115.25 53.1946 1115.34 53.7732 1115.53 54.2029V54.3201H1114.11ZM1111.86 53.2874C1112.28 53.2874 1112.69 53.1775 1113.07 52.9578C1113.45 52.738 1113.72 52.4524 1113.89 52.1008V50.4749H1112.83C1111.17 50.4749 1110.34 50.9607 1110.34 51.9324C1110.34 52.3572 1110.48 52.6892 1110.77 52.9285C1111.05 53.1677 1111.41 53.2874 1111.86 53.2874ZM1120.55 53.3606C1121.04 53.3606 1121.46 53.2141 1121.82 52.9211C1122.18 52.6282 1122.38 52.262 1122.42 51.8225H1123.7C1123.68 52.2766 1123.52 52.7087 1123.23 53.1189C1122.94 53.5291 1122.56 53.8562 1122.08 54.1003C1121.6 54.3445 1121.09 54.4666 1120.55 54.4666C1119.47 54.4666 1118.61 54.1077 1117.97 53.3899C1117.34 52.6672 1117.02 51.6809 1117.02 50.4309V50.2039C1117.02 49.4324 1117.16 48.7463 1117.45 48.1458C1117.73 47.5452 1118.13 47.0789 1118.66 46.7468C1119.19 46.4148 1119.82 46.2488 1120.54 46.2488C1121.43 46.2488 1122.17 46.5149 1122.76 47.0471C1123.35 47.5793 1123.66 48.2703 1123.7 49.1199H1122.42C1122.38 48.6072 1122.19 48.1873 1121.83 47.8601C1121.49 47.5281 1121.06 47.3621 1120.54 47.3621C1119.86 47.3621 1119.32 47.6111 1118.94 48.1091C1118.56 48.6023 1118.38 49.3176 1118.38 50.2551V50.5115C1118.38 51.4246 1118.56 52.1277 1118.94 52.6208C1119.32 53.114 1119.85 53.3606 1120.55 53.3606ZM1126.58 47.3547C1127.18 46.6174 1127.96 46.2488 1128.92 46.2488C1130.6 46.2488 1131.44 47.1936 1131.46 49.0833V54.3201H1130.1V49.0759C1130.1 48.5046 1129.97 48.0823 1129.71 47.8088C1129.45 47.5354 1129.06 47.3987 1128.51 47.3987C1128.07 47.3987 1127.69 47.5159 1127.36 47.7502C1127.02 47.9846 1126.77 48.2922 1126.58 48.6731V54.3201H1125.22V43.0701H1126.58V47.3547ZM1137.32 47.6111C1137.11 47.5769 1136.89 47.5598 1136.65 47.5598C1135.76 47.5598 1135.16 47.9382 1134.84 48.6951V54.3201H1133.49V46.3953H1134.8L1134.83 47.3108C1135.27 46.6028 1135.9 46.2488 1136.72 46.2488C1136.98 46.2488 1137.18 46.283 1137.32 46.3513V47.6111ZM1140.04 54.3201H1138.69V46.3953H1140.04V54.3201ZM1138.58 44.2932C1138.58 44.0735 1138.64 43.8879 1138.77 43.7366C1138.91 43.5852 1139.11 43.5095 1139.38 43.5095C1139.64 43.5095 1139.84 43.5852 1139.98 43.7366C1140.11 43.8879 1140.18 44.0735 1140.18 44.2932C1140.18 44.5129 1140.11 44.696 1139.98 44.8425C1139.84 44.989 1139.64 45.0623 1139.38 45.0623C1139.11 45.0623 1138.91 44.989 1138.77 44.8425C1138.64 44.696 1138.58 44.5129 1138.58 44.2932ZM1145.4 53.3606C1145.88 53.3606 1146.3 53.2141 1146.66 52.9211C1147.02 52.6282 1147.22 52.262 1147.26 51.8225H1148.54C1148.52 52.2766 1148.36 52.7087 1148.08 53.1189C1147.79 53.5291 1147.4 53.8562 1146.92 54.1003C1146.44 54.3445 1145.93 54.4666 1145.4 54.4666C1144.32 54.4666 1143.46 54.1077 1142.82 53.3899C1142.18 52.6672 1141.87 51.6809 1141.87 50.4309V50.2039C1141.87 49.4324 1142.01 48.7463 1142.29 48.1458C1142.57 47.5452 1142.98 47.0789 1143.51 46.7468C1144.04 46.4148 1144.67 46.2488 1145.39 46.2488C1146.28 46.2488 1147.01 46.5149 1147.6 47.0471C1148.19 47.5793 1148.51 48.2703 1148.54 49.1199H1147.26C1147.22 48.6072 1147.03 48.1873 1146.68 47.8601C1146.33 47.5281 1145.9 47.3621 1145.39 47.3621C1144.7 47.3621 1144.17 47.6111 1143.78 48.1091C1143.41 48.6023 1143.22 49.3176 1143.22 50.2551V50.5115C1143.22 51.4246 1143.41 52.1277 1143.78 52.6208C1144.16 53.114 1144.7 53.3606 1145.4 53.3606ZM1151.42 47.3547C1152.02 46.6174 1152.81 46.2488 1153.77 46.2488C1155.44 46.2488 1156.29 47.1936 1156.3 49.0833V54.3201H1154.95V49.0759C1154.94 48.5046 1154.81 48.0823 1154.55 47.8088C1154.3 47.5354 1153.9 47.3987 1153.36 47.3987C1152.92 47.3987 1152.53 47.5159 1152.2 47.7502C1151.87 47.9846 1151.61 48.2922 1151.42 48.6731V54.3201H1150.07V43.0701H1151.42V47.3547ZM1160.17 44.4763V46.3953H1161.65V47.4426H1160.17V52.3572C1160.17 52.6746 1160.23 52.9138 1160.37 53.075C1160.5 53.2312 1160.72 53.3093 1161.04 53.3093C1161.2 53.3093 1161.41 53.28 1161.68 53.2214V54.3201C1161.33 54.4177 1160.98 54.4666 1160.64 54.4666C1160.04 54.4666 1159.58 54.2834 1159.27 53.9172C1158.97 53.551 1158.81 53.031 1158.81 52.3572V47.4426H1157.37V46.3953H1158.81V44.4763H1160.17ZM1166.53 54.4666C1165.45 54.4666 1164.58 54.115 1163.9 53.4119C1163.23 52.7039 1162.89 51.759 1162.89 50.5774V50.3284C1162.89 49.5422 1163.04 48.8416 1163.34 48.2263C1163.64 47.6062 1164.06 47.1228 1164.6 46.7761C1165.14 46.4246 1165.73 46.2488 1166.36 46.2488C1167.39 46.2488 1168.19 46.5881 1168.76 47.2668C1169.33 47.9456 1169.62 48.9172 1169.62 50.1819V50.7458H1164.25C1164.27 51.5271 1164.49 52.1594 1164.93 52.6428C1165.37 53.1213 1165.93 53.3606 1166.6 53.3606C1167.08 53.3606 1167.48 53.2629 1167.81 53.0676C1168.15 52.8723 1168.44 52.6135 1168.69 52.2913L1169.51 52.9358C1168.85 53.9563 1167.85 54.4666 1166.53 54.4666ZM1166.36 47.3621C1165.81 47.3621 1165.35 47.5623 1164.98 47.9626C1164.61 48.3582 1164.38 48.9148 1164.29 49.6326H1168.26V49.53C1168.22 48.8416 1168.04 48.3093 1167.71 47.9333C1167.37 47.5525 1166.92 47.3621 1166.36 47.3621ZM1172.47 46.3953L1172.52 47.3914C1173.12 46.6296 1173.91 46.2488 1174.89 46.2488C1176.56 46.2488 1177.41 47.1936 1177.42 49.0833V54.3201H1176.07V49.0759C1176.06 48.5046 1175.93 48.0823 1175.67 47.8088C1175.42 47.5354 1175.02 47.3987 1174.48 47.3987C1174.04 47.3987 1173.65 47.5159 1173.32 47.7502C1172.99 47.9846 1172.73 48.2922 1172.55 48.6731V54.3201H1171.19V46.3953H1172.47Z" fill="white"/>
<path d="M325.473 27.2734V28.3574C324.73 28.416 324.105 28.6211 323.598 28.9727C323.09 29.3242 322.641 29.8613 322.25 30.584C322.133 30.8184 321.518 32.332 320.404 35.125L307.953 67.9082H306.811L296.967 42.3027L286.127 67.9082H285.043L271.977 35.4766C270.648 32.2148 269.721 30.2422 269.193 29.5586C268.666 28.875 267.777 28.4746 266.527 28.3574V27.2734H283.754V28.3574C282.367 28.3965 281.439 28.6113 280.971 29.002C280.521 29.373 280.297 29.8418 280.297 30.4082C280.297 31.1504 280.775 32.7227 281.732 35.125L289.525 54.4023L295.766 39.3438L294.125 35.125C293.227 32.8203 292.533 31.2871 292.045 30.5254C291.557 29.7441 290.99 29.1875 290.346 28.8555C289.721 28.5234 288.793 28.3574 287.562 28.3574V27.2734H306.811V28.3574C305.463 28.377 304.496 28.4844 303.91 28.6797C303.5 28.8164 303.178 29.0508 302.943 29.3828C302.709 29.6953 302.592 30.0566 302.592 30.4668C302.592 30.916 303.031 32.293 303.91 34.5977L311.146 53.4062L317.621 36.3848C318.305 34.627 318.725 33.4258 318.881 32.7812C319.037 32.1367 319.115 31.541 319.115 30.9941C319.115 30.1934 318.842 29.5684 318.295 29.1191C317.748 28.6504 316.703 28.3965 315.16 28.3574V27.2734H325.473ZM342.348 29.5586V45.7305H343.139C345.658 45.7305 347.484 44.9395 348.617 43.3574C349.75 41.7754 350.473 39.4414 350.785 36.3555H351.898V57.1562H350.785C350.551 54.8906 350.053 53.0352 349.291 51.5898C348.549 50.1445 347.68 49.1777 346.684 48.6895C345.688 48.1816 344.242 47.9277 342.348 47.9277V59.1191C342.348 61.3066 342.436 62.6445 342.611 63.1328C342.807 63.6211 343.158 64.0215 343.666 64.334C344.174 64.6465 344.994 64.8027 346.127 64.8027H348.5C352.211 64.8027 355.18 63.9434 357.406 62.2246C359.652 60.5059 361.264 57.8887 362.24 54.373H363.324L361.537 67H327.201V65.916H328.52C329.672 65.916 330.6 65.7109 331.303 65.3008C331.811 65.0273 332.201 64.5586 332.475 63.8945C332.689 63.4258 332.797 62.1953 332.797 60.2031V34.0703C332.797 32.2734 332.748 31.1699 332.65 30.7598C332.455 30.0762 332.094 29.5488 331.566 29.1777C330.824 28.6309 329.809 28.3574 328.52 28.3574H327.201V27.2734H360.453V39.0215H359.34C358.773 36.1504 357.973 34.0898 356.938 32.8398C355.922 31.5898 354.477 30.6719 352.602 30.0859C351.508 29.7344 349.457 29.5586 346.449 29.5586H342.348ZM403.9 53.0547L402.406 67H367.133V65.916H368.451C369.604 65.916 370.531 65.7109 371.234 65.3008C371.742 65.0273 372.133 64.5586 372.406 63.8945C372.621 63.4258 372.729 62.1953 372.729 60.2031V34.0703C372.729 32.0391 372.621 30.7695 372.406 30.2617C372.191 29.7539 371.752 29.3145 371.088 28.9434C370.443 28.5527 369.564 28.3574 368.451 28.3574H367.133V27.2734H388.314V28.3574H386.586C385.434 28.3574 384.506 28.5625 383.803 28.9727C383.295 29.2461 382.895 29.7148 382.602 30.3789C382.387 30.8477 382.279 32.0781 382.279 34.0703V59.3828C382.279 61.4141 382.396 62.7129 382.631 63.2793C382.865 63.8262 383.324 64.2363 384.008 64.5098C384.496 64.6855 385.678 64.7734 387.553 64.7734H390.863C392.973 64.7734 394.73 64.4023 396.137 63.6602C397.543 62.918 398.754 61.7461 399.77 60.1445C400.805 58.543 401.781 56.1797 402.699 53.0547H403.9ZM438.383 27.2734V38.0254H437.328C436.703 35.5449 436.01 33.7676 435.248 32.6934C434.486 31.5996 433.441 30.7305 432.113 30.0859C431.371 29.7344 430.072 29.5586 428.217 29.5586H425.258V60.2031C425.258 62.2344 425.365 63.5039 425.58 64.0117C425.814 64.5195 426.254 64.9688 426.898 65.3594C427.562 65.7305 428.461 65.916 429.594 65.916H430.912V67H410.111V65.916H411.43C412.582 65.916 413.51 65.7109 414.213 65.3008C414.721 65.0273 415.121 64.5586 415.414 63.8945C415.629 63.4258 415.736 62.1953 415.736 60.2031V29.5586H412.865C410.189 29.5586 408.246 30.125 407.035 31.2578C405.336 32.8398 404.262 35.0957 403.812 38.0254H402.699V27.2734H438.383Z" fill="white"/>
<rect width="163" height="28" transform="translate(272 86)" fill="#FF0000"/>
<path d="M291.684 102.217H287.216L286.213 105H284.763L288.835 94.3359H290.065L294.145 105H292.702L291.684 102.217ZM287.641 101.06H291.267L289.45 96.0718L287.641 101.06ZM297.58 101.331L296.73 102.217V105H295.375V93.75H296.73V100.554L297.456 99.6826L299.924 97.0752H301.572L298.488 100.386L301.931 105H300.341L297.58 101.331ZM304.809 95.1562V97.0752H306.289V98.1226H304.809V103.037C304.809 103.354 304.875 103.594 305.007 103.755C305.139 103.911 305.363 103.989 305.681 103.989C305.837 103.989 306.052 103.96 306.325 103.901V105C305.969 105.098 305.622 105.146 305.285 105.146C304.68 105.146 304.223 104.963 303.916 104.597C303.608 104.231 303.454 103.711 303.454 103.037V98.1226H302.011V97.0752H303.454V95.1562H304.809ZM312.771 104.216C312.243 104.836 311.469 105.146 310.449 105.146C309.604 105.146 308.959 104.902 308.515 104.414C308.076 103.921 307.854 103.193 307.849 102.231V97.0752H309.204V102.195C309.204 103.396 309.692 103.997 310.668 103.997C311.704 103.997 312.392 103.611 312.734 102.839V97.0752H314.089V105H312.8L312.771 104.216ZM319.443 105.146C318.369 105.146 317.495 104.795 316.821 104.092C316.147 103.384 315.81 102.439 315.81 101.257V101.008C315.81 100.222 315.959 99.5215 316.257 98.9062C316.56 98.2861 316.979 97.8027 317.517 97.4561C318.059 97.1045 318.645 96.9287 319.274 96.9287C320.305 96.9287 321.105 97.2681 321.677 97.9468C322.248 98.6255 322.534 99.5972 322.534 100.862V101.426H317.165C317.185 102.207 317.412 102.839 317.846 103.323C318.286 103.801 318.842 104.041 319.516 104.041C319.995 104.041 320.4 103.943 320.732 103.748C321.064 103.552 321.354 103.293 321.604 102.971L322.431 103.616C321.767 104.636 320.771 105.146 319.443 105.146ZM319.274 98.042C318.728 98.042 318.269 98.2422 317.897 98.6426C317.526 99.0381 317.297 99.5947 317.209 100.312H321.179V100.21C321.14 99.5215 320.954 98.9893 320.622 98.6133C320.29 98.2324 319.841 98.042 319.274 98.042ZM325.581 105H324.226V93.75H325.581V105ZM329.228 105H327.873V93.75H329.228V105ZM334.692 105.146C333.618 105.146 332.744 104.795 332.07 104.092C331.396 103.384 331.059 102.439 331.059 101.257V101.008C331.059 100.222 331.208 99.5215 331.506 98.9062C331.809 98.2861 332.229 97.8027 332.766 97.4561C333.308 97.1045 333.894 96.9287 334.523 96.9287C335.554 96.9287 336.354 97.2681 336.926 97.9468C337.497 98.6255 337.783 99.5972 337.783 100.862V101.426H332.414C332.434 102.207 332.661 102.839 333.095 103.323C333.535 103.801 334.091 104.041 334.765 104.041C335.244 104.041 335.649 103.943 335.981 103.748C336.313 103.552 336.604 103.293 336.853 102.971L337.68 103.616C337.016 104.636 336.02 105.146 334.692 105.146ZM334.523 98.042C333.977 98.042 333.518 98.2422 333.146 98.6426C332.775 99.0381 332.546 99.5947 332.458 100.312H336.428V100.21C336.389 99.5215 336.203 98.9893 335.871 98.6133C335.539 98.2324 335.09 98.042 334.523 98.042ZM351.486 105H350.073L344.704 96.7822V105H343.291V94.3359H344.704L350.087 102.59V94.3359H351.486V105ZM358.664 105C358.586 104.844 358.522 104.565 358.474 104.165C357.844 104.819 357.092 105.146 356.218 105.146C355.437 105.146 354.794 104.927 354.292 104.487C353.793 104.043 353.544 103.481 353.544 102.803C353.544 101.978 353.857 101.338 354.482 100.884C355.112 100.425 355.996 100.195 357.133 100.195H358.452V99.5728C358.452 99.0991 358.31 98.7231 358.027 98.4448C357.744 98.1616 357.326 98.02 356.774 98.02C356.291 98.02 355.886 98.1421 355.559 98.3862C355.231 98.6304 355.068 98.9258 355.068 99.2725H353.706C353.706 98.877 353.845 98.4961 354.123 98.1299C354.406 97.7588 354.787 97.4658 355.266 97.251C355.749 97.0361 356.279 96.9287 356.855 96.9287C357.768 96.9287 358.483 97.1582 359.001 97.6172C359.519 98.0713 359.787 98.6987 359.807 99.4995V103.147C359.807 103.875 359.899 104.453 360.085 104.883V105H358.664ZM356.416 103.967C356.84 103.967 357.243 103.857 357.624 103.638C358.005 103.418 358.281 103.132 358.452 102.781V101.155H357.39C355.729 101.155 354.899 101.641 354.899 102.612C354.899 103.037 355.041 103.369 355.324 103.608C355.607 103.848 355.971 103.967 356.416 103.967ZM365.109 104.041C365.593 104.041 366.015 103.894 366.376 103.601C366.738 103.308 366.938 102.942 366.977 102.502H368.259C368.234 102.957 368.078 103.389 367.79 103.799C367.502 104.209 367.116 104.536 366.633 104.78C366.154 105.024 365.646 105.146 365.109 105.146C364.03 105.146 363.171 104.788 362.531 104.07C361.896 103.347 361.579 102.361 361.579 101.111V100.884C361.579 100.112 361.721 99.4263 362.004 98.8257C362.287 98.2251 362.692 97.7588 363.22 97.4268C363.752 97.0947 364.379 96.9287 365.102 96.9287C365.991 96.9287 366.728 97.1948 367.314 97.7271C367.905 98.2593 368.22 98.9502 368.259 99.7998H366.977C366.938 99.2871 366.743 98.8672 366.391 98.54C366.044 98.208 365.615 98.042 365.102 98.042C364.414 98.042 363.879 98.291 363.498 98.7891C363.122 99.2822 362.934 99.9976 362.934 100.935V101.191C362.934 102.104 363.122 102.808 363.498 103.301C363.874 103.794 364.411 104.041 365.109 104.041ZM371.137 98.0347C371.738 97.2974 372.519 96.9287 373.481 96.9287C375.156 96.9287 376 97.8735 376.015 99.7632V105H374.66V99.7559C374.655 99.1846 374.523 98.7622 374.265 98.4888C374.011 98.2153 373.613 98.0786 373.071 98.0786C372.631 98.0786 372.246 98.1958 371.914 98.4302C371.582 98.6646 371.323 98.9722 371.137 99.353V105H369.782V93.75H371.137V98.0347ZM381.875 98.291C381.669 98.2568 381.447 98.2397 381.208 98.2397C380.319 98.2397 379.716 98.6182 379.399 99.375V105H378.044V97.0752H379.362L379.384 97.9907C379.829 97.2827 380.458 96.9287 381.274 96.9287C381.538 96.9287 381.738 96.9629 381.875 97.0312V98.291ZM384.599 105H383.244V97.0752H384.599V105ZM383.134 94.9731C383.134 94.7534 383.2 94.5679 383.332 94.4165C383.469 94.2651 383.669 94.1895 383.933 94.1895C384.196 94.1895 384.396 94.2651 384.533 94.4165C384.67 94.5679 384.738 94.7534 384.738 94.9731C384.738 95.1929 384.67 95.376 384.533 95.5225C384.396 95.6689 384.196 95.7422 383.933 95.7422C383.669 95.7422 383.469 95.6689 383.332 95.5225C383.2 95.376 383.134 95.1929 383.134 94.9731ZM389.953 104.041C390.437 104.041 390.859 103.894 391.22 103.601C391.582 103.308 391.782 102.942 391.821 102.502H393.103C393.078 102.957 392.922 103.389 392.634 103.799C392.346 104.209 391.96 104.536 391.477 104.78C390.998 105.024 390.49 105.146 389.953 105.146C388.874 105.146 388.015 104.788 387.375 104.07C386.74 103.347 386.423 102.361 386.423 101.111V100.884C386.423 100.112 386.564 99.4263 386.848 98.8257C387.131 98.2251 387.536 97.7588 388.063 97.4268C388.596 97.0947 389.223 96.9287 389.946 96.9287C390.834 96.9287 391.572 97.1948 392.158 97.7271C392.749 98.2593 393.063 98.9502 393.103 99.7998H391.821C391.782 99.2871 391.586 98.8672 391.235 98.54C390.888 98.208 390.458 98.042 389.946 98.042C389.257 98.042 388.723 98.291 388.342 98.7891C387.966 99.2822 387.778 99.9976 387.778 100.935V101.191C387.778 102.104 387.966 102.808 388.342 103.301C388.718 103.794 389.255 104.041 389.953 104.041ZM395.981 98.0347C396.582 97.2974 397.363 96.9287 398.325 96.9287C400 96.9287 400.844 97.8735 400.859 99.7632V105H399.504V99.7559C399.499 99.1846 399.367 98.7622 399.108 98.4888C398.854 98.2153 398.457 98.0786 397.915 98.0786C397.475 98.0786 397.089 98.1958 396.757 98.4302C396.425 98.6646 396.167 98.9722 395.981 99.353V105H394.626V93.75H395.981V98.0347ZM404.726 95.1562V97.0752H406.206V98.1226H404.726V103.037C404.726 103.354 404.792 103.594 404.924 103.755C405.056 103.911 405.28 103.989 405.598 103.989C405.754 103.989 405.969 103.96 406.242 103.901V105C405.886 105.098 405.539 105.146 405.202 105.146C404.597 105.146 404.14 104.963 403.833 104.597C403.525 104.231 403.371 103.711 403.371 103.037V98.1226H401.928V97.0752H403.371V95.1562H404.726ZM411.083 105.146C410.009 105.146 409.135 104.795 408.461 104.092C407.788 103.384 407.451 102.439 407.451 101.257V101.008C407.451 100.222 407.6 99.5215 407.897 98.9062C408.2 98.2861 408.62 97.8027 409.157 97.4561C409.699 97.1045 410.285 96.9287 410.915 96.9287C411.945 96.9287 412.746 97.2681 413.317 97.9468C413.889 98.6255 414.174 99.5972 414.174 100.862V101.426H408.806C408.825 102.207 409.052 102.839 409.487 103.323C409.926 103.801 410.483 104.041 411.157 104.041C411.635 104.041 412.041 103.943 412.373 103.748C412.705 103.552 412.995 103.293 413.244 102.971L414.072 103.616C413.408 104.636 412.412 105.146 411.083 105.146ZM410.915 98.042C410.368 98.042 409.909 98.2422 409.538 98.6426C409.167 99.0381 408.938 99.5947 408.85 100.312H412.819V100.21C412.78 99.5215 412.595 98.9893 412.263 98.6133C411.931 98.2324 411.481 98.042 410.915 98.042ZM417.031 97.0752L417.075 98.0713C417.68 97.3096 418.471 96.9287 419.448 96.9287C421.123 96.9287 421.967 97.8735 421.982 99.7632V105H420.627V99.7559C420.622 99.1846 420.49 98.7622 420.231 98.4888C419.978 98.2153 419.58 98.0786 419.038 98.0786C418.598 98.0786 418.212 98.1958 417.88 98.4302C417.548 98.6646 417.29 98.9722 417.104 99.353V105H415.749V97.0752H417.031Z" fill="white"/>
</svg>
